<mxfile host="65bd71144e">
    <diagram name="Prisma Fabric Architecture" id="prisma-fabric-arch">
        <mxGraphModel dx="1666" dy="851" grid="1" gridSize="10" guides="1" tooltips="1" connect="1" arrows="1" fold="1" page="1" pageScale="1" pageWidth="1169" pageHeight="827" math="0" shadow="0">
            <root>
                <mxCell id="0"/>
                <mxCell id="1" parent="0"/>
                <mxCell id="title" value="Prisma Fabric Architecture" style="text;html=1;strokeColor=none;fillColor=none;align=center;verticalAlign=middle;whiteSpace=wrap;rounded=0;fontSize=24;fontStyle=1;" parent="1" vertex="1">
                    <mxGeometry x="400" y="20" width="300" height="40" as="geometry"/>
                </mxCell>
                <mxCell id="data-sources-container" value="" style="rounded=1;whiteSpace=wrap;html=1;fillColor=#f5f5f5;strokeColor=#666666;fontSize=14;fontStyle=1;" parent="1" vertex="1">
                    <mxGeometry x="50" y="80" width="200" height="300" as="geometry"/>
                </mxCell>
                <mxCell id="data-sources-title" value="Data Sources" style="text;html=1;strokeColor=none;fillColor=none;align=center;verticalAlign=middle;whiteSpace=wrap;rounded=0;fontSize=16;fontStyle=1;" parent="1" vertex="1">
                    <mxGeometry x="100" y="100" width="100" height="30" as="geometry"/>
                </mxCell>
                <mxCell id="data-factory" value="Data Factory" style="rounded=1;whiteSpace=wrap;html=1;fillColor=#dae8fc;strokeColor=#6c8ebf;" parent="1" vertex="1">
                    <mxGeometry x="300" y="200" width="120" height="60" as="geometry"/>
                </mxCell>
                <mxCell id="one-lake" value="One Lake" style="rounded=1;whiteSpace=wrap;html=1;fillColor=#d5e8d4;strokeColor=#82b366;" parent="1" vertex="1">
                    <mxGeometry x="500" y="200" width="120" height="60" as="geometry"/>
                </mxCell>
                <mxCell id="warehouses-container" value="" style="rounded=1;whiteSpace=wrap;html=1;fillColor=#fff2cc;strokeColor=#d6b656;" parent="1" vertex="1">
                    <mxGeometry x="700" y="80" width="200" height="300" as="geometry"/>
                </mxCell>
                <mxCell id="warehouses-title" value="Data Warehouses" style="text;html=1;strokeColor=none;fillColor=none;align=center;verticalAlign=middle;whiteSpace=wrap;rounded=0;fontSize=16;fontStyle=1;" parent="1" vertex="1">
                    <mxGeometry x="750" y="100" width="100" height="30" as="geometry"/>
                </mxCell>
                <mxCell id="bronze" value="LH_BRONZE" style="rounded=1;whiteSpace=wrap;html=1;fillColor=#a0522d;strokeColor=#6D1F00;fontColor=#ffffff;" parent="1" vertex="1">
                    <mxGeometry x="720" y="150" width="160" height="40" as="geometry"/>
                </mxCell>
                <mxCell id="silver" value="WH_SILVER" style="rounded=1;whiteSpace=wrap;html=1;fillColor=#f5f5f5;strokeColor=#666666;" parent="1" vertex="1">
                    <mxGeometry x="720" y="200" width="160" height="40" as="geometry"/>
                </mxCell>
                <mxCell id="gold" value="WH_GOLD" style="rounded=1;whiteSpace=wrap;html=1;fillColor=#fff2cc;strokeColor=#d6b656;" parent="1" vertex="1">
                    <mxGeometry x="720" y="250" width="160" height="40" as="geometry"/>
                </mxCell>
                <mxCell id="spark-job" value="Spark Job" style="rounded=1;whiteSpace=wrap;html=1;fillColor=#ffe6cc;strokeColor=#d79b00;" parent="1" vertex="1">
                    <mxGeometry x="500" y="350" width="120" height="60" as="geometry"/>
                </mxCell>
                <mxCell id="endpoint" value="End Point" style="rounded=1;whiteSpace=wrap;html=1;fillColor=#e1d5e7;strokeColor=#9673a6;" parent="1" vertex="1">
                    <mxGeometry x="500" y="450" width="120" height="60" as="geometry"/>
                </mxCell>
                <mxCell id="arrow1" value="" style="endArrow=classic;html=1;rounded=0;exitX=1;exitY=0.5;exitDx=0;exitDy=0;entryX=0;entryY=0.5;entryDx=0;entryDy=0;" parent="1" source="data-factory" target="one-lake" edge="1">
                    <mxGeometry width="50" height="50" relative="1" as="geometry">
                        <mxPoint x="440" y="230" as="sourcePoint"/>
                        <mxPoint x="490" y="180" as="targetPoint"/>
                    </mxGeometry>
                </mxCell>
                <mxCell id="arrow2" value="" style="endArrow=classic;html=1;rounded=0;exitX=1;exitY=0.5;exitDx=0;exitDy=0;entryX=0;entryY=0.5;entryDx=0;entryDy=0;" parent="1" source="one-lake" target="bronze" edge="1">
                    <mxGeometry width="50" height="50" relative="1" as="geometry">
                        <mxPoint x="640" y="230" as="sourcePoint"/>
                        <mxPoint x="690" y="180" as="targetPoint"/>
                    </mxGeometry>
                </mxCell>
                <mxCell id="arrow3" value="" style="endArrow=classic;html=1;rounded=0;exitX=0.5;exitY=1;exitDx=0;exitDy=0;entryX=0.5;entryY=0;entryDx=0;entryDy=0;" parent="1" source="one-lake" target="spark-job" edge="1">
                    <mxGeometry width="50" height="50" relative="1" as="geometry">
                        <mxPoint x="560" y="270" as="sourcePoint"/>
                        <mxPoint x="560" y="330" as="targetPoint"/>
                    </mxGeometry>
                </mxCell>
                <mxCell id="arrow4" value="" style="endArrow=classic;html=1;rounded=0;exitX=0.5;exitY=1;exitDx=0;exitDy=0;entryX=0.5;entryY=0;entryDx=0;entryDy=0;" parent="1" source="spark-job" target="endpoint" edge="1">
                    <mxGeometry width="50" height="50" relative="1" as="geometry">
                        <mxPoint x="560" y="420" as="sourcePoint"/>
                        <mxPoint x="560" y="430" as="targetPoint"/>
                    </mxGeometry>
                </mxCell>
                <mxCell id="legend-container" value="" style="rounded=1;whiteSpace=wrap;html=1;fillColor=#f8f9fa;strokeColor=#dee2e6;" parent="1" vertex="1">
                    <mxGeometry x="50" y="600" width="850" height="150" as="geometry"/>
                </mxCell>
                <mxCell id="legend-title" value="Legend" style="text;html=1;strokeColor=none;fillColor=none;align=center;verticalAlign=middle;whiteSpace=wrap;rounded=0;fontSize=14;fontStyle=1;" parent="1" vertex="1">
                    <mxGeometry x="70" y="620" width="60" height="30" as="geometry"/>
                </mxCell>
                <mxCell id="legend-bronze" value="Bronze Layer - Raw Data" style="rounded=1;whiteSpace=wrap;html=1;fillColor=#a0522d;strokeColor=#6D1F00;fontColor=#ffffff;" parent="1" vertex="1">
                    <mxGeometry x="70" y="660" width="150" height="30" as="geometry"/>
                </mxCell>
                <mxCell id="legend-silver" value="Silver Layer - Cleansed Data" style="rounded=1;whiteSpace=wrap;html=1;fillColor=#f5f5f5;strokeColor=#666666;" parent="1" vertex="1">
                    <mxGeometry x="240" y="660" width="180" height="30" as="geometry"/>
                </mxCell>
                <mxCell id="legend-gold" value="Gold Layer - Curated Data" style="rounded=1;whiteSpace=wrap;html=1;fillColor=#fff2cc;strokeColor=#d6b656;" parent="1" vertex="1">
                    <mxGeometry x="440" y="660" width="170" height="30" as="geometry"/>
                </mxCell>
                <mxCell id="legend-processing" value="Data Processing" style="rounded=1;whiteSpace=wrap;html=1;fillColor=#dae8fc;strokeColor=#6c8ebf;" parent="1" vertex="1">
                    <mxGeometry x="630" y="660" width="120" height="30" as="geometry"/>
                </mxCell>
                <mxCell id="legend-storage" value="Data Storage" style="rounded=1;whiteSpace=wrap;html=1;fillColor=#d5e8d4;strokeColor=#82b366;" parent="1" vertex="1">
                    <mxGeometry x="770" y="660" width="100" height="30" as="geometry"/>
                </mxCell>
            </root>
        </mxGraphModel>
    </diagram>
    <diagram id="a9DMBL0uNAdMD1cvZL1U" name="Architecture">
        <mxGraphModel dx="28832" dy="-12598" grid="1" gridSize="10" guides="1" tooltips="1" connect="1" arrows="1" fold="1" page="1" pageScale="1" pageWidth="850" pageHeight="1100" math="0" shadow="0">
            <root>
                <mxCell id="0"/>
                <mxCell id="1" parent="0"/>
                <mxCell id="PQXVnNhZtj9RLlJGFQYp-9" value="" style="rounded=0;whiteSpace=wrap;html=1;fontSize=15;" vertex="1" parent="1">
                    <mxGeometry x="-24600" y="14670" width="720" height="110" as="geometry"/>
                </mxCell>
                <mxCell id="0NJEaxfhDhGH7qhbb6L8-2" value="" style="rounded=1;whiteSpace=wrap;html=1;movable=1;resizable=1;rotatable=1;deletable=1;editable=1;locked=0;connectable=1;fontSize=15;" vertex="1" parent="1">
                    <mxGeometry x="-25380" y="14640" width="410" height="1090" as="geometry"/>
                </mxCell>
                <mxCell id="deKIqA1C8W78LDySlrCz-1" value="Pace" style="image;aspect=fixed;html=1;points=[];align=center;fontSize=15;image=img/lib/azure2/databases/Azure_Database_PostgreSQL_Server.svg;fontStyle=1" vertex="1" parent="1">
                    <mxGeometry x="-25260" y="14860" width="45" height="60" as="geometry"/>
                </mxCell>
                <mxCell id="deKIqA1C8W78LDySlrCz-8" style="edgeStyle=none;html=1;fontSize=15;" edge="1" parent="1" source="deKIqA1C8W78LDySlrCz-2" target="deKIqA1C8W78LDySlrCz-4">
                    <mxGeometry relative="1" as="geometry"/>
                </mxCell>
                <mxCell id="deKIqA1C8W78LDySlrCz-2" value="DokShop" style="outlineConnect=0;dashed=0;verticalLabelPosition=bottom;verticalAlign=top;align=center;html=1;shape=mxgraph.aws3.ms_sql_instance;fillColor=#2E73B8;gradientColor=none;fontSize=15;" vertex="1" parent="1">
                    <mxGeometry x="-25260" y="14950" width="45" height="60" as="geometry"/>
                </mxCell>
                <mxCell id="deKIqA1C8W78LDySlrCz-3" value="Austin" style="image;aspect=fixed;html=1;points=[];align=center;fontSize=15;image=img/lib/azure2/databases/Azure_Database_PostgreSQL_Server.svg;fontStyle=1" vertex="1" parent="1">
                    <mxGeometry x="-25260" y="14730" width="45" height="60" as="geometry"/>
                </mxCell>
                <mxCell id="deKIqA1C8W78LDySlrCz-4" value="Austin Data Gateway" style="verticalLabelPosition=bottom;html=1;verticalAlign=top;align=center;strokeColor=none;fillColor=#00BEF2;shape=mxgraph.azure.virtual_machine;fontSize=15;" vertex="1" parent="1">
                    <mxGeometry x="-25100" y="14990" width="50" height="40" as="geometry"/>
                </mxCell>
                <mxCell id="deKIqA1C8W78LDySlrCz-5" value="Slim" style="outlineConnect=0;dashed=0;verticalLabelPosition=bottom;verticalAlign=top;align=center;html=1;shape=mxgraph.aws3.ms_sql_instance;fillColor=#2E73B8;gradientColor=none;fontSize=15;" vertex="1" parent="1">
                    <mxGeometry x="-25260" y="15060" width="45" height="60" as="geometry"/>
                </mxCell>
                <mxCell id="deKIqA1C8W78LDySlrCz-12" style="edgeStyle=none;html=1;fontSize=15;" edge="1" parent="1" source="deKIqA1C8W78LDySlrCz-6" target="deKIqA1C8W78LDySlrCz-11">
                    <mxGeometry relative="1" as="geometry"/>
                </mxCell>
                <mxCell id="deKIqA1C8W78LDySlrCz-6" value="Nola" style="outlineConnect=0;dashed=0;verticalLabelPosition=bottom;verticalAlign=top;align=center;html=1;shape=mxgraph.aws3.ms_sql_instance;fillColor=#2E73B8;gradientColor=none;fontSize=15;" vertex="1" parent="1">
                    <mxGeometry x="-25260" y="15180" width="45" height="60" as="geometry"/>
                </mxCell>
                <mxCell id="deKIqA1C8W78LDySlrCz-7" style="edgeStyle=none;html=1;entryX=0;entryY=0.5;entryDx=0;entryDy=0;entryPerimeter=0;fontSize=15;" edge="1" parent="1" source="deKIqA1C8W78LDySlrCz-1" target="deKIqA1C8W78LDySlrCz-4">
                    <mxGeometry relative="1" as="geometry"/>
                </mxCell>
                <mxCell id="deKIqA1C8W78LDySlrCz-9" style="edgeStyle=none;html=1;entryX=0;entryY=0.5;entryDx=0;entryDy=0;entryPerimeter=0;fontSize=15;" edge="1" parent="1" source="deKIqA1C8W78LDySlrCz-5" target="deKIqA1C8W78LDySlrCz-4">
                    <mxGeometry relative="1" as="geometry"/>
                </mxCell>
                <mxCell id="deKIqA1C8W78LDySlrCz-10" value="Baton Rouge" style="outlineConnect=0;dashed=0;verticalLabelPosition=bottom;verticalAlign=top;align=center;html=1;shape=mxgraph.aws3.ms_sql_instance;fillColor=#2E73B8;gradientColor=none;fontSize=15;" vertex="1" parent="1">
                    <mxGeometry x="-25260" y="15280" width="45" height="60" as="geometry"/>
                </mxCell>
                <mxCell id="deKIqA1C8W78LDySlrCz-11" value="Austin Data Gateway" style="verticalLabelPosition=bottom;html=1;verticalAlign=top;align=center;strokeColor=none;fillColor=#00BEF2;shape=mxgraph.azure.virtual_machine;fontSize=15;" vertex="1" parent="1">
                    <mxGeometry x="-25110" y="15230" width="50" height="40" as="geometry"/>
                </mxCell>
                <mxCell id="deKIqA1C8W78LDySlrCz-13" style="edgeStyle=none;html=1;entryX=0;entryY=0.5;entryDx=0;entryDy=0;entryPerimeter=0;fontSize=15;" edge="1" parent="1" source="deKIqA1C8W78LDySlrCz-10" target="deKIqA1C8W78LDySlrCz-11">
                    <mxGeometry relative="1" as="geometry"/>
                </mxCell>
                <mxCell id="deKIqA1C8W78LDySlrCz-14" value="Austin Data Gateway" style="verticalLabelPosition=bottom;html=1;verticalAlign=top;align=center;strokeColor=none;fillColor=#00BEF2;shape=mxgraph.azure.virtual_machine;fontSize=15;" vertex="1" parent="1">
                    <mxGeometry x="-25100" y="14780" width="50" height="40" as="geometry"/>
                </mxCell>
                <mxCell id="deKIqA1C8W78LDySlrCz-15" style="edgeStyle=none;html=1;entryX=0;entryY=0.5;entryDx=0;entryDy=0;entryPerimeter=0;fontSize=15;" edge="1" parent="1" source="deKIqA1C8W78LDySlrCz-3" target="deKIqA1C8W78LDySlrCz-14">
                    <mxGeometry relative="1" as="geometry"/>
                </mxCell>
                <mxCell id="0NJEaxfhDhGH7qhbb6L8-3" value="&lt;b&gt;Source System&lt;/b&gt;" style="text;html=1;align=center;verticalAlign=middle;whiteSpace=wrap;rounded=0;fontSize=20;" vertex="1" parent="1">
                    <mxGeometry x="-25230" y="14650" width="110" height="30" as="geometry"/>
                </mxCell>
                <mxCell id="0NJEaxfhDhGH7qhbb6L8-4" value="" style="rounded=1;whiteSpace=wrap;html=1;movable=1;resizable=1;rotatable=1;deletable=1;editable=1;locked=0;connectable=1;fontSize=15;" vertex="1" parent="1">
                    <mxGeometry x="-24920" y="14490" width="1840" height="1310" as="geometry"/>
                </mxCell>
                <mxCell id="0NJEaxfhDhGH7qhbb6L8-5" value="" style="rounded=1;whiteSpace=wrap;html=1;fontSize=15;" vertex="1" parent="1">
                    <mxGeometry x="-24850" y="14620" width="1190" height="650" as="geometry"/>
                </mxCell>
                <mxCell id="0NJEaxfhDhGH7qhbb6L8-7" value="Prisma_fabric_dev workspace" style="shape=image;verticalLabelPosition=bottom;labelBackgroundColor=default;verticalAlign=top;aspect=fixed;imageAspect=0;image=https://debruyn.dev/2023/all-microsoft-fabric-icons-for-diagramming-old-version/Workspace.png;fontSize=15;" vertex="1" parent="1">
                    <mxGeometry x="-24752.5" y="14660" width="45" height="45" as="geometry"/>
                </mxCell>
                <mxCell id="0NJEaxfhDhGH7qhbb6L8-9" value="One Lake" style="shape=image;verticalLabelPosition=bottom;labelBackgroundColor=none;verticalAlign=top;aspect=fixed;imageAspect=0;image=https://www.comset.co.uk/wp-content/uploads/2024/01/one-lake-logo2.png;fontSize=15;fillColor=#09555B;strokeColor=#BAC8D3;fontColor=#000000;container=0;imageBackground=default;" vertex="1" parent="1">
                    <mxGeometry x="-24279" y="15170" width="58.58" height="60" as="geometry"/>
                </mxCell>
                <mxCell id="PQXVnNhZtj9RLlJGFQYp-8" value="" style="group;fontSize=15;" vertex="1" connectable="0" parent="1">
                    <mxGeometry x="-24790" y="14830" width="120" height="270" as="geometry"/>
                </mxCell>
                <mxCell id="0NJEaxfhDhGH7qhbb6L8-11" value="" style="rounded=1;whiteSpace=wrap;html=1;fontSize=15;" vertex="1" parent="PQXVnNhZtj9RLlJGFQYp-8">
                    <mxGeometry width="120" height="270" as="geometry"/>
                </mxCell>
                <mxCell id="0NJEaxfhDhGH7qhbb6L8-12" value="Ingestion" style="text;html=1;align=center;verticalAlign=middle;whiteSpace=wrap;rounded=0;fontSize=20;" vertex="1" parent="PQXVnNhZtj9RLlJGFQYp-8">
                    <mxGeometry x="30" y="10" width="60" height="30" as="geometry"/>
                </mxCell>
                <mxCell id="PQXVnNhZtj9RLlJGFQYp-1" value="Data Factory" style="shape=image;verticalLabelPosition=bottom;labelBackgroundColor=default;verticalAlign=top;aspect=fixed;imageAspect=0;image=data:image/png,iVBORw0KGgoAAAANSUhEUgAAAEYAAABGCAIAAAD+THXTAAAXDUlEQVRoBd2aeVBTWb7H55/3NOSee+2pmXmvpmZ06s3rejUz3S2KAiEEspAEAqjshCw3LEnYVxHc0dZuF2Tfw76jrSIq+yKruLMGRFlcutveprune7rttiWvzrlJwKXRDkzVq0d9y0olN3A+fr+/7zk38Cvd/7uvX5lG9PjJ3+98mqL9SDn6IHD4fuCte0E355Q35pTX55RX55RXZlWDs6rLs6qBGVXfjLp3Rt09rb40re66q+6YDu6cCbn+0fGvv79n2o9+5btMRJr9ovjDH/zHPvIb+dBv+KFk6KHk5kPJjYeSaw+kV+5LB+9LL9+XDdyT9d2T987Ju+dkl2blnbPyjhmybYZsmVH0fa66NLP7ydPvX7k+Ey4wEWny0XtTX0ivz/penRFfnREPzogHpv36p/1670J135VcuiPpvCNpvyNpm5K0Tkmab0ubJmUXJ2UXJmUNk7Jzk/LG2YBH34yasOJXvsVEpOnPCqa+VFydEV+ZEV+eEfdP+/VN+/UYYLruSDruSNunpG1Tkpbb0ubb0sYFGNlZrey0Vn7xQdCtR5WvXJ8JF5iI9ODLi2OfkYOz0Jw+ZE7PXUn3XclimMXmnJ+UNUzI6idkZ7TyD7Tyk1r5udnAxjs7f5r/0YRFL/0WE5G++G5scE4yOCdZMOcuTFoHdEbWOiVtmZI23ZY1TsovTMrPT8rrJ+RnJ+SnDTy14/K6CfLkVMAn/5xcen0mvGoi0uOfvuqfVQ3ekxrNgZMzJW1FPFTS0OTIz01CmDNayHNKK6/TymvG5dXj8sox+el7yv6HRSYseum3mIg0r5sf+uj9648UXc+YI2u+LWu6LadgGibl5ybkZ7WQhwpbrR6GrBgjy0YVFZMBVdrQrx9/svQSf+mrJiLpdLrpv5+5/llAJ6wBWeuUrHkKwhiT1oDCtmDOODSnaoysHCPLx8jSUbJ4RFE4QlbNqS7dX2GjTEf64rvbHdOKzhk54pEjc+Dk6M2ZgLX2gZY8qZUbzSmH5pAlo2TRCKkZURSMKDTj/kWTygf/GPulVixxvelIT+ef9M7u6nno3zy1UAMNk2T9JAzbaQhD1o2T0JxxOZW0EmgO5CkYIfOHydxhMnuI1EwFlU8kfvfkH0us8he9ZDqSTqe7/fnZvkfKi7dhpyEYkqq1U1qyTkvWjpPV48akKUpGFEUjZCE0B8LkDJFZQ2TGLTLtFpl3V3luOvWnpytT6MtC+vrxh013VI3T/ucmyfoJ8vQEiZIGeWq0ZNU4qoExsmRUUYx4CkYURnMyb5HptxSpN8mUG/ITN2XZU/5Ns/lP53/6RYa89OJlIel0usEHmW0fKs9qSdTR5EmtolarqB5XVI4p9GGDMIpCCKPIHVbkDBvMuUlCnpvyEzekydckyTckGZPkuemMx0/++dKFvv6Ty0X6+Nuxc3cDzkwqTmrJWq2iRquoGocwqNagOShpijwIo8geJhfMgTCy5OuS49clx675Hb0qPnpNnDohq5jY+/G3M68P8OKVy0Wa1813zR678EBZi2Coji4bpSZHoRlR5I1Q5iiyhhQZt8hUKmyUOdclx6/5IR7f96/4vAflnTwqTh0K6P+w3mS7louk0+k++mb85J3Amkn/8jFF2aiidFSftIIRRe4IMgfCKNIWYGTJ16XHEc/Rq+IjV30pmMODXu9e9jw44Hn4uteRYZ+84eirHzd9++NXL/qw9DMrgKTT6TrnMk7fV5WOLJgDeYYV2UOKzCF/VAOoCX7OnEHvQ5cpHo8DAx5J/W5J/W6HbngeuuFx4nrQ2anM0c96v3r86Y8/vdb91cogffHd/ZrbYeWTAfrJGVHkDEGejFv+i805cUN6/Lrf8WuSo9eM5vgcHvQ6BM2BMAf63ZP63fb3bdvbu3VP75Y9vVv2X9l68KbbngHXfX2eqddCS0eTTk2mNtzJvTitaZwpapsrv/6o9avvP13s28og6XS6Gx/XV82pC0b9oTnD/plDivQhRerN58xBTXBN/D4K2+Er3nqey54HBtyTBtz397vt69u2tw/y7O513dXjsrPbOfGSKLHHeWev884B591XXA7c3HZoyOvIiPjYmDxFG5A+pioY3X7rUYeRasWQnjz94ez04dIZNUzaEGWOIsVY04YmOHLV9/2r+iY4pB8eD8jT76bn6d26p2fL7h7XXd0uid3OCZdECZdEO7qc4jsd4zqEcR2ChEtOu7q37O1xT+rzfrff78ggmT4cnD8ZOfyJnmrFkHQ63eP5r6vv7szWBlFhS71JopqGYYO1hsJGNRtlzrvQHI+kfvf9/dv2922D/qC87e5x3dnjknhJtAPxxHc6bu8UxnUIYzv4Me38+E7HxEuuu7vd9vd6HewXvzcgPzYYkD0aphnb/uXjRzqdTo80/fntc5PVp8dLzmhLKZ2dKDWqfqJUL21pPaXxkvoxpNHiekojxRdGa9IHorO1QelDCrSHom0H1TQyR99shwY9UbPpm+A5GCpsi8yhYIQx7fzodofodoe4DmFCl8uuS257ezwP9PkeHpAdHfRPuaYquht745MWPVL/vQ5W8Z82lq7ZWLLGonTNptI1m8rWWFZAWVWssa5cY1MFxahcY1OxhllG2JZCsYoJVhFhq8FtC6BYebhtDrBMpoWcY2aNBMIzAbWHLjQBmpxBz4PIHCps+4zmUGHr0YcNJq3LaI4gBsFEtfGi2nixHfz4TlFi17Y93R77e73f7ZccGVSkXFNqbkc1z8D7FOiS/xnnDcVr3ski1mcT5jnEhlwoi3yoTQXE5gLCsoCw1BBWhYSVhrDKJ6zzcOscKEY2zsjCrTOAdTpgpEFZJdMZySC2hZs2pNDvoVQTDHrrJ4dqAhg21ASGpL1gDuSJ7YDmQB4EE9HKiWjlxLTzt3c6JXS57u5239/rfbDf7/3LZPLVoPzJyDOTOXokUbn5+lxiAQlR6ZHyF5CsCwkoDWGdj0OqXNwaIS1QpQJGKrA8Zmabuia+XZByU041weLJ0TeB0ZzeLcZa09fAc+YgmMhWbkQrJ6yVHd7CRkYJd3QuZO+9AfnxK4H5E5GnJ7L1SK4VFi9BynveJQqJUUgwNAQjH2fk4YxcnJGD21BgmcAmHdikAUYK2HyUZpf+Rny74PgN6eFB72cmp/+ZGnipOXEGc6LaeJGtvIhWTjiCCW22D222j2zlxrQLtnc4J3Zt3dPtkYTG6diVgNyJiNNa05CKCIrKRoMz83FmLhRFZZMJmOkYMxWzSQGbj9Hs0tbEtHCPXBMfvOyZZNxDF9XaLlRrsAm6RItqTQCbwGAOhGllhzWzQ5vtg5tZwU2s8BZOdCs/rl2U0LVl9yWYvUP90qOD/jna8FPjWUu69MIs6V0qImyKCUYRYVNIMAsISJWHwHJwmyycmYlBqjQIZnWcxkrFQ84zD1/xOTDgbujorXDPofZQtO1Qe46hplETGCYnvJUT1gJhQprtgptY6kZbdZNtWAs7qtUhtt1pR6frri63fb1eVENka8M+0Gb+DNLienhhliBMsUGFhE0B8gpR2ebgtlmAmYFBITBGMo2ZbEaeXJ8EN1N3uIeiM0EiOhPs6NLvoQYeVNMwbHByoDkt7JBm+5AmyBPcyFJdZKoamSHNdhEt3Jg2x/gOl8SurXu7vQ6ghsgaCz05nvEaSIsab7FLNsUEs4RgFhM2hTizAAlRsXKAbRYUMxOzTYN22SSbWR9b5V7yXwldjvv73RbCBs8Ei2uaH90OO9rYBPqwNbHUTbbqRlvVRWbQRRvlRRtD9gRx7c4JXVv2dHsc6PN977I8cyzk1Gu5tDRSKWFbQtgW4axCnKXBbfNxVi5g5QBWNqRiZQLbdIwFQ0i3PrqKn/0b9Xnr3b1bdva4LA7bczVNmWMMGzSnkalEMIEXGIEXrNWNtqFNVPZECZ1wnJL6fA5flmWMBdeNLdsl2xKCVUrYlRB2xbhdIbDTALt8YJcH7AxgrCxgl45BpWHM46ttk2meZf8d3cpL7HGO73KM7VjYQxfCRjVBE2wCdaMtBRN0wSbwAsP/vJX/eSvlRWZIk31ECy+mzSm+A1Y5bIgBafqoum4s/ZcFzwrtS8ZZYpZAiyASpRL858DsMhBVOmaXYmZzbBUv4w1Z3dvR7Q7buxxj2vlRbfqafq4J9OZAGJuA89b+563Ihs2KBsugC4zgRlZ4Mye6Vbi93Xln17Z9PbAh0kZVdWNpSyFtXLLxqFnSI5URdmUGMKNdBdAxe+SYfTbGycLsMzD7dMw+DWOdoNkeWyXM/q2s7p3wFnZ0Bz+yjUvxBKMmoCZHedEmyACjOG9JNmyWN2yWn9sUcMFadZEV2sSJauXHtYnQ7uR5sN8vdURZuzTSz50eXuJSGWFfjlRG2JcS7GLAKQLsIsDWAPsCwM4H7FzAyYFUnCyMnYmx0+nsVDrr+GrW8dWCrN/4VP2P6jwjDB0OQprtqLBRSUPmWCoaLCkYab2FtN7CmL3IFofYNqeETqohxCkjQTWjqUu59OIZ78XGM7pEIbErCHY5wS4j2CU4pxhwigG7EHA0gFMA2HmAk4txspEyMU4GxkFgdidorOOruWm4q+YPfnVvBTZYqRqZ6iZW4EWbADQ8yJxNsnObpPUWkrMbJWc3kg2bAy8w1I324c28mFbH+A542Evq8z0xHFi9gkh2yCV2BcFBYpcRnBKcWwK4xYBbiKQB3HyMm4dxczHoGIoiB7LR2Wl0doqZXfJq+xM0fgbhqvm9Z8Wbkg/elp+zIBs2k+et5OctZQ2bpfWbpOfMZQ3v+F/cqGyyDG1hRrax4zr4CZec0b2TT/K/CqmS4FbiUBU4rxx3KAW8YihuEeBqAE8DeAUYD4FxczBuNsbNwjiZGDeDzkunc1Pp3BQzdvJqzgkaL5UuyCREeb/bUvSHbaV/cq/4s2f1m66lFs5Ftu6Vtt7Vdn61PFmdQHFKFHbBdU/v1kODXseHAqpGU1YgeLDuyogFlxASrwqHqsQdKgC/DIpXgtiKAK8Q8DSYQz7Gy4dsvByMlw3ZHLLoDhl0h3Q6Px3+y0sz46WacVNpnBOruSmreak0QcaqN6PYwCv0DbHyDXHwG74hv/YN+7VP2O8kYeY7goJPi9O18uqxf8EscSqgS7wq3KEa51fjDlW4QyXgVwB+OXAoBQ4lgF8M+EWAX4jxNRi/AMohD3PIxfg5GD8bKYsuyKTzM6CoBw4Q0kyY+e9/juCs3hZB9wimu4fR3cIxtwjMLZK+LfrfnOJ+7RMR1hB4ajJZ75JL+cZnbi6oMx51c/HzZ7yFfellLjlUQSRKgiogqAQCBMYvA4JSICgBgiIgKMIEhZhAgwkKMEE+lDAXE+RighwoYQ4myKLrlWnmmLPqzSiOmXs48FIDrxDgEYZ7hOMeEbhHJO4evco59s9hMQWDBqTnbwEXH1uXPBAZG+/F4BmRBDW4sBYX1gChAUxQDoTlQFgKhCVAWAwcizBhISbUYI4azLEAc8xHysMc8yAhVA4mzKY75a96M5pt5kYhBQOPMKBHisDdo3H3aOC5I6bMcCAKbvDYWLrmnRxifQ5hnktsyIOyKIDapCE2a+BdumUhYV0ExSgmbEqgmOgTCDtqU6ogYN1VEtwq2A364NXg/BpcUIs71UE51gKoauBYhTlVYk4VmKgcE5VholJMVEoXldBFxXRREV1UaJCG7qShOxXQHfMxkWa1Uz7t98qtZu5hyKVg4BmKjIqARiEkwnuHzxHD/dLwx9dcqjeYFxAbCoiNGsKiEGpTMbG5mLAsgbIqIaxKCZsyKGY5YVsBxaok7CoJ+yqCXU1waqC4tQSvGneoBvwaIKgBwlogrMUc6zDRyRdUR3eupTvX0J2r6c5VdOdKM+cKpHIz5zIzl1KaXiU052Kac/FqYT7+lwQG3UuFeaoRkjF7CMkjCnePJrx3yJOL9bOk0+k+//bTvnttPXPNvXMtlPrutTyj+y3991sGFutBywDS5QctAw9bLj9sufVJ17stB/64e8MfE82RNv4xwWLtjk1rEzatTdi8dofV2h3WUPGMtfHMtduZa+Ns18bZrou1XxfDXhfNXhfNWRfFXRvFXRfJWxfpsC6CDxUuXBch/I9AT7qnCvMOAl4qAxI0avE4ET6JJ84YPvQyfvS6zAd///rbDXulZmqOWSCb5s+h+fNoCj6NFNBIIY10pMmdaTJXmtSVJt1Kk7jR/NxXiz1Wiz1pYh+aWEzz8aP5Smg+UpqPjOZN0rwVNK8AKE8lzUNF91IBn0Aob+VLkQjv+LXyndMfw783WLFPW396+tQjKwaPYgG1LVCzgMoOKO1BEAcE8UCgA1SAAPg7IYmAwgWQWwC5FZNvw+TuQOYJZF5A6g2kPkDiCyRi4CcBYikQy4AvCXwVwNf/JUheobAhPCMJnzjcK668Y4CyZMWQ8rtO4pE2IIQB1EyExAJKO6DkgCCungoiOeqpnkFyw+QeBiTvBSQ/CkkOkcQBQKzCpSG4NAyXRuGSSFwShUuicb9Y3DtmfcTB2u5BY8RWBmn60/vr4vl4OAMEWyMkW6BajMRFLvFBgNBA5QwUroDcglxyQ0Z5IJeeRfKT47IAXKYCYv83g2Nc3z0Wmleyq6xub9XpPZUf7K44daC6/mTv1S++eeYPDFYGSVmyF49hgBCrBSQ1hcTWGwWzh5ACKKOM2aOo3IHMA0gXZ0+CkwogJRmJu/fXnOzVTnz29dfzunmjFUs8WAGkgbu31kRYgjArEGIJkYJt0DjZ6seJyh41ToECEOAIApyAP0JaMAohyTwRlQ+QS3BS5pCU9MHlgW++/26J1b/0peUizc/Pe2SF41FWIGSzAYkBgpmQSmUHVPZAyQZKLghCDREoAIEIKUAE/J2pksDkWzG5G3QJlQTuL30zPKSwvfWHJ09euuJXPrlcpJ7b1/AICxBmYUCyAsEMvVEqFkRScRaQgvgIiTJqMRLqPbknHujnkfz+7Kfw10Qmfy0XSa7ZgcdsAiEbQcgm5BIap2AbEIyqXG0HVJRLPBDEB0GUSwYkf2dAuuqrnPQAgT6RxXnf//iDyTDUG5eFNPVo9j9jGCBiIwg1IFENAY1CVf4MkgNEChLqx0mfPdR75DYQ5L29QrNMmBVAOtKUj8duBKEboEIsoEv6hjCMk5oF1Ch7QTygdEBGCV8cJxDkpchJfjr/WoX2SmzTXfrxyY/Wh91BNOLRI1ENsWicIJKdfpyUDkDJB4EICZaEviHwIHfmvuiv/vntK9f6mheYjjRw9yYRYQ7C14NQc+TSxpc0hB6JDVRcoKTGSWigQkgBrr9VeV2e0r7mcl/nMtORDl/IwuPMQdg7i5B+viFUXESFGoIqiUARCHDG1du2V+S+zkJf/xoTkZ7OPxWlKfCY9RApbD0ap59rCGqcKCSqIVDvBToBpeufIsQPPv+/8ee6H375ye/jLEHk24uQXtUQVPZgSQhQ9pzwkK2xFfAXxiv7ZaJLjSNdIOKvIPwthPTOotJDDQGr3LDhGhsCZg/1npIPqzxI9IZ6y5W7KzlF1H+NiUjHmvPw2LdA2N8MSMaGQOP0EiTUENAo1HtBQjzYhXkg/MefTDz1LGGsiUhBpfF4HIW0OHvPjZONYcNdPE7UBiXAQ1z2nCpcYmUmv2Qikihdgcf+DYT9FYRR2aMaghqnF86vxg13IXsCXC3qmRgyed1LvNFEpB0fvE8kvg2i3wJRb4MocxC1AURaQEVsBhFWIMIahDNAOBOEs0CYHQizB2EcEMoDoQ4glA9ChHiki/BI7Pc/LPc491IwE5E+++aL8Kp9G94VrU8SmSe5IG0xT9pqvn+b+X438/0e5vs8zfd6me/1Nt/jiyQ23yMx3yNbv1u2YQ+pLj4299nHL13Q8p80EWn5P/hf9x3+F+q7L2wkuaBeAAAAAElFTkSuQmCC;strokeColor=default;align=center;fontFamily=Helvetica;fontSize=15;fontColor=default;fillColor=default;" vertex="1" parent="PQXVnNhZtj9RLlJGFQYp-8">
                    <mxGeometry x="37.5" y="100" width="45" height="43.9" as="geometry"/>
                </mxCell>
                <mxCell id="PQXVnNhZtj9RLlJGFQYp-10" value="" style="rounded=1;whiteSpace=wrap;html=1;fontSize=15;" vertex="1" parent="1">
                    <mxGeometry x="-24630" y="14775" width="830" height="380" as="geometry"/>
                </mxCell>
                <mxCell id="PQXVnNhZtj9RLlJGFQYp-11" style="edgeStyle=none;html=1;entryX=0;entryY=0.5;entryDx=0;entryDy=0;fontSize=15;" edge="1" parent="1" source="deKIqA1C8W78LDySlrCz-14" target="PQXVnNhZtj9RLlJGFQYp-1">
                    <mxGeometry relative="1" as="geometry"/>
                </mxCell>
                <mxCell id="PQXVnNhZtj9RLlJGFQYp-12" style="edgeStyle=none;html=1;entryX=0;entryY=0.5;entryDx=0;entryDy=0;fontSize=15;" edge="1" parent="1" source="deKIqA1C8W78LDySlrCz-4" target="PQXVnNhZtj9RLlJGFQYp-1">
                    <mxGeometry relative="1" as="geometry"/>
                </mxCell>
                <mxCell id="PQXVnNhZtj9RLlJGFQYp-13" style="edgeStyle=none;html=1;entryX=0.25;entryY=1;entryDx=0;entryDy=0;fontSize=15;" edge="1" parent="1" source="deKIqA1C8W78LDySlrCz-11" target="PQXVnNhZtj9RLlJGFQYp-1">
                    <mxGeometry relative="1" as="geometry"/>
                </mxCell>
                <mxCell id="PQXVnNhZtj9RLlJGFQYp-39" style="edgeStyle=none;html=1;fontSize=15;" edge="1" parent="1" source="PQXVnNhZtj9RLlJGFQYp-14" target="PQXVnNhZtj9RLlJGFQYp-15">
                    <mxGeometry relative="1" as="geometry"/>
                </mxCell>
                <mxCell id="PQXVnNhZtj9RLlJGFQYp-14" value="LH_BRONZE" style="shape=image;verticalLabelPosition=bottom;labelBackgroundColor=none;verticalAlign=top;aspect=fixed;imageAspect=0;image=data:image/png,iVBORw0KGgoAAAANSUhEUgAAAKAAAAClCAYAAADbAvaeAAAEDmlDQ1BrQ0dDb2xvclNwYWNlR2VuZXJpY1JHQgAAOI2NVV1oHFUUPpu5syskzoPUpqaSDv41lLRsUtGE2uj+ZbNt3CyTbLRBkMns3Z1pJjPj/KRpKT4UQRDBqOCT4P9bwSchaqvtiy2itFCiBIMo+ND6R6HSFwnruTOzu5O4a73L3PnmnO9+595z7t4LkLgsW5beJQIsGq4t5dPis8fmxMQ6dMF90A190C0rjpUqlSYBG+PCv9rt7yDG3tf2t/f/Z+uuUEcBiN2F2Kw4yiLiZQD+FcWyXYAEQfvICddi+AnEO2ycIOISw7UAVxieD/Cyz5mRMohfRSwoqoz+xNuIB+cj9loEB3Pw2448NaitKSLLRck2q5pOI9O9g/t/tkXda8Tbg0+PszB9FN8DuPaXKnKW4YcQn1Xk3HSIry5ps8UQ/2W5aQnxIwBdu7yFcgrxPsRjVXu8HOh0qao30cArp9SZZxDfg3h1wTzKxu5E/LUxX5wKdX5SnAzmDx4A4OIqLbB69yMesE1pKojLjVdoNsfyiPi45hZmAn3uLWdpOtfQOaVmikEs7ovj8hFWpz7EV6mel0L9Xy23FMYlPYZenAx0yDB1/PX6dledmQjikjkXCxqMJS9WtfFCyH9XtSekEF+2dH+P4tzITduTygGfv58a5VCTH5PtXD7EFZiNyUDBhHnsFTBgE0SQIA9pfFtgo6cKGuhooeilaKH41eDs38Ip+f4At1Rq/sjr6NEwQqb/I/DQqsLvaFUjvAx+eWirddAJZnAj1DFJL0mSg/gcIpPkMBkhoyCSJ8lTZIxk0TpKDjXHliJzZPO50dR5ASNSnzeLvIvod0HG/mdkmOC0z8VKnzcQ2M/Yz2vKldduXjp9bleLu0ZWn7vWc+l0JGcaai10yNrUnXLP/8Jf59ewX+c3Wgz+B34Df+vbVrc16zTMVgp9um9bxEfzPU5kPqUtVWxhs6OiWTVW+gIfywB9uXi7CGcGW/zk98k/kmvJ95IfJn/j3uQ+4c5zn3Kfcd+AyF3gLnJfcl9xH3OfR2rUee80a+6vo7EK5mmXUdyfQlrYLTwoZIU9wsPCZEtP6BWGhAlhL3p2N6sTjRdduwbHsG9kq32sgBepc+xurLPW4T9URpYGJ3ym4+8zA05u44QjST8ZIoVtu3qE7fWmdn5LPdqvgcZz8Ww8BWJ8X3w0PhQ/wnCDGd+LvlHs8dRy6bLLDuKMaZ20tZrqisPJ5ONiCq8yKhYM5cCgKOu66Lsc0aYOtZdo5QCwezI4wm9J/v0X23mlZXOfBjj8Jzv3WrY5D+CsA9D7aMs2gGfjve8ArD6mePZSeCfEYt8CONWDw8FXTxrPqx/r9Vt4biXeANh8vV7/+/16ffMD1N8AuKD/A/8leAvFY9bLAAAAOGVYSWZNTQAqAAAACAABh2kABAAAAAEAAAAaAAAAAAACoAIABAAAAAEAAACgoAMABAAAAAEAAAClAAAAAEzEtMMAABB8SURBVHgB7Z1rzFxVFYYRhLbcJBRCIdiPcisiUpSWm/yQSzVA1CalBlIDISlSJUgiKAYwBlL4ZRQxhNIAYuIfWiEE0GJCQDQGSgETKCjUYCkkUG5WCnIVfZ/4DZkOZ85Ze5+zz2VmreTNmTl7r7Xe9e49Z85lf/Nts42bK+AKuAKugCvgCrgCroAr4Aq4Aq6AK+AKuAKugCvgCrgCroAr4Aq4Aq6AK+AKuAKugCvgCrgCroAr4Aq4Aq6AK+AKuAKugCvgCrgCroAr4ApEKPCJCJ9RdZmlwk4Tjhb2nizyRW3XCL8V/jG5zzeuQKUKHKRotwofCv8dAtroQ183V6AyBb6hSFuEYRNvcD998XFzBUorcLEiDE4w63t83VyBaAWulKd1sg3rRww3VyBIAS66rhGGTarQ/cTyC7mgIRjfztup9JuF0ElW1P8mxSS2myswVIHt1bJSKJpMse3EJoebK/AxBaZpD/fxYieX1Y8c5HJzBT5SYBe9+oNgnURl+5GLnG6uwDa7S4OHhZhJxVdq7Fc2OcntNsYKzFDtTwgxk48LFS4qyly0kBsObmOowIRqXi/ETL6fy6//tgqv2RcTCw5wcRsjBWar1ueFmAmzLEcn2mJibpQfnNzGQIE5qnGTEDNRvm/Qhz4xseEEN7cRVuAY1fZPIXSC/Ec+SwN0oS8+oXngBke3EVTgJNX0phA6Kd6Xz+IIPfDBNzQfHOHqNkIKfE21vCOETgZ8vl5CB3xj88LZbQQUOFM1xB6JTq6gfmLEHnnh7tZhBb4l7rHnYsdVWDexYs89qcGtgwpcJM6hX7n0f1k4IkG9xCR2DCdqceuQAleIa8xAc2/wkIR1Ejv2/iM1ubVcAZ5IxC4k/bt896uhPnKQK+YD4gtbaxig2BTbypFFnzEDu05+vT+xjM0f4kcucsZwpUZqdWuRAizyvFWIGdC18pveQC3kJHcMZ2r1ha0NDFpWyqnaGbuQ9AH57poVtKZ95IZDzCSkZmp3a1CBMgtJV4v3tAa591LDAS4xk/B++fnC1p6SNW9ZzLlGiBm4VfLboWa+eengAqeYWtDAF7bmqZugbYZiPiHEDNgv5bddAk5lQ8IJbjE1PS4/NHGrQYEJ5VgvxAzUtfLjVk1bDW5wjKkNTdDGLaECBys2izdjBihvIWlCylGhyyxsRSO3BArMUcxNQszk+0ECPqlDwjmmVjRCK7cKFThGsV4XQgeEn0tbWiGPukPBnRpC60YrNHOrQIETFWOLEDoILMFaXEH+pkNQA7WE1o9maOdWQoGvyvdtIVT8d+SzoETetrlSCzWF6oB2aOgWoUDTC0kjKCd18YWtSeXdOvi5ehuzkHSz/KpcSLo1q+bfURs1hh4J0RJN3QwKXKQ+oQLTn8WenzfE73oXavSFrYlG8QrFjZl8L8jvkESc2hiWWqk5Ris0dhtQgCcAPxNiBK1rIekA5cbf7icGsQtb0RrN3aQAiytvFGImX90LSds2YGUWtqI52o+1lVlI+oiUmz7W6v2/eDRAi5gP8K3yG9uFrVNV/N2Rwv1Rfk0uJFX6VhlaoEnMJGQMGIuxMhZR3i/ECNaWhaRtG7BpIlRmYevObSsoFR8WT64RYibfb+TXpoWkqTSKjYs2aBSjLWPC2Iy07aXqHhdiBLpFfm1cSCparTI0ukWI0ZixYYxG0maqqmeEGGF+IT+/bWCfFmiFZjFaM0aM1UhZmYWkV42UEvUWg3Yxk3Cj/EZmYevnVMxLkUJcIj+3cgqgYcwkZMwYu04bv3u8SQgVgEWY3+505e0ij5YxC1sZu87+djW3Wv4mhE4+Fl9+U3CrVgE0jVnYyhgylp2zFWIcOvlGbSFp2wYtdmErY9kpmyu2oYf8t+Qzv1NVdpMsGqN1yMGBsWRMO2N3iGlIgSyy/GJnqus+UbQOXdjKmHbCWKHxgWCdgOOykLRtgxe6sJUxZWxbb98RQ+vkG7eFpG0bvM+IUMjC1k7cmVhpnIBvqB8CuDWrAGPAWFgOGoxt6+1JMbQU86PWVzI+BBkLy5gxtq23f4mhpZiDWl/J+BBkLCxjxtg2YiELAfgTQMtS7+3VjxNbt+YV+KQocJO6yLgd08iKpJAJyCfJYiExLfG8TzkFWj1uliNaufLd2xXIUcAnYI443pReAZ+A6TX2DDkK+ATMEceb0ivgEzC9xp4hRwGfgDnieFN6BXwCptfYM+Qo4BMwRxxvSq+AT8D0GnuGHAV4VOM22gp8SeV9SuC58BeELwt7CJ0zy0Nt62OfzhU/QoT51vuK8Duhf0xbX2I/2bzXrS/ECX6kwEl69ZTQiQNH3qTrb/uoOn/RCQV2FMtfN8U0ZOWK9VMSErOpuj1vSxTwq+CWDMS40vAJOK4j35K6fQK2ZCDGlYZPwHEd+ZbU7ROwJQMxrjT8SUjcyM+U23nCPIGrfv6dwg3CBqENNiESPX7wWSvA7znedNX67/Xlve5qfVbep6hj1o8AsW+RNUjCfguH8Pu39p+aMG/y0HmTrr8tOZEGE8xR7neF/nr7X7+ntiMa5Hd4AT+489sxnbR+ofNed7I4I2l+SSqvdtpuN8ZK0W2Vgd9dKRLXEbNI+F57HVyayHGoklp+G5E/4J/VAMEJ5bT8ehk1HNYAv9IpexOsaFs6UUsD3CleRbX32q9voIbrAvjxb7w6Zz1xi7adK8xA+Ez1Kaq7v50jUZ1HGY7Oob8TvdhQd6u69Auc97pVpCsgc4BivCrk1ZzVdp986liYQY57I/i9Jp8Dhc5YlshZ+zpTkIHodPXhPwxl1WnZV8f/Q7m4BL/18u3M6miL4PQZFdtbhTwqWOvO6sfX4vEJBTlOsbn1k5Xbuu8x+e+TkGNloa0FVZawwUD87cRGwVpzXj++6lL8YuxsxY05Ncji+rxiHSm02rKIZ+1rdREF5PiNvEuFskeVQV1eUcyjCnKHNM9V55eFwTxl3lPz5QIatNKsxbWSvIEUj6nWCdY6Q/vxz3ouFMpcmOB7gfC2EJrf2v9JxT5NaJ1ZC2gd8RxC/Ev7swQe1lvrK9vvEeWaL4TayXKom+fZyolGrTCr8K0gO4QEq394VrtEuE14U7DWVXU//hrtMoFzL/4j+qCxjzb6cFSqOr81HhrxePFcAe34CebKLOTrAMIWC4lpiRfaZ6YclgrzhJ0FeCPajEkwCaswHuwvFJggx5YMyI1rLno2T8bhD8knhLJcH1SMqwQ+bFOEKgyumwT+7SvnjYw3k5Sj83KBOpKY9ROTJLkx6Onqx7IjK9fYfgjOOSO2p/CMEBsrlR+c4IbBFc6pcvXioj1jkMR6SYq2SZIbghYtlSribW1/UVwGb1nsr33st8ZI3Q8us4R+g3MdHPlmYCwqN6tolSc2BlylflaOsf0eUo6JIXwO1v5na+BQxB0OcMkyuFNDUYyy7SuzkpfdZyVVNk+sf1U3ZbPq5LznSqHonGwv9anzSnWQK7nhkGfUQC3UNOhf1XvGonKzkqs8sTFgqntja5T/aCMHuk0RfiJ8KFg1K9uPXOQkt9WoidrK5s7yZywqt6xEWfsqT2wMyDPNLD6x+zYo3mIh9qr+BPmuE2LzW/3IQa4YozZq3CBY81n6MRaVmyUxfZqy85XYyjGvH+dIZwhFX7eWOnmstUTg1kRezpg2YhK7ikdn1ErNVZ0fMhaVm1WkyhMbAzIQqwUrz/5+T8vvaoFFCCkMbguEe4T3hf7cIa/xJQaxqph4CvMxQwO0QJMQbr2+jEESbr0ERVvlb8y44bxM4IbuMJ6sTnlUWC6cI8wW6rTdlGyRsELgHGyLMIwrbfShLz741mlog0ZohWZoN4wrmqN90JMSzgGsRmKLhcS0xIvpgwjcithJ4I+EADdJX5jcatMaQy9uGPP0Y9dJVm9oy79QfUWw6j7pmnyzozLsK7DlSAfeErjxzRE6yEImi1WIkJhBZL3z6Cmw7eiV5BV1SQGfgF0arRHk6hNwBAe1SyVx/8ctXIGZcjlPmCdwzvuIcIOwQWiDTYhEjx981grwe443XTUuQizoan1W3qeoI1d9g1qwb5E1SMJ+CxU7ix93AViW1VkbFHzY+84WaCBetOTrPcU4whAnVZfDFfhdYdjY0Oa/jpVK/Rri3pEzuL1Bv70GHsNSrDLwu2uYc9v39wQu2ra9jlh+h8rRssLFfx0rVuECP+v6sSkFcbrafKeIF334eu3XN1DkdQH87m6AX+mUrxsLbPIcqHSRQwKcaay9NwH5sB42JFaK3RydQxc5LE5BJGXMvyh4T+C87bUpSTQQ+wDlfNVYe78u98mnjseS5Lg3gh8LCw4UOmO/EtN+gYe95pM4vzNV5ROdrmYesg+rtWj/JfnhK2m9uAS/9fLdoxIWNQQ5K6BQLvd/KOxSA69UKfZWYJYgFU2yvHY+jMenIqi4xwnc+snjUNT2mPz3ERqxkK8Ilgu9JEwNYIo4Twusa6vCblKQm6sIVBCDRZnccvl0QT9LM+fOTMK/WjoH9Jmtvn8WOEqXNZapLRD4wLXabhS7ok9UqvaHlTtosWOEkqxtu1Qoe1QZ1IB1fUdF8BnmMlcNLwuDecq8p+bLBTRore0vZu8IZQqN8eWr7LOJVTlV8dclrA3dLhRCvnXUfSvD9wLhbSFGR4vPk4p9mtBa+7GYWQqpss+KRGpwOsG57doaa2LhQsxF2skN8DxbOUNOudQ9vXGIfkCocoLlxfpQuTjfqcJY/cN9yiXCbcKbQl7ulG1PKfdlwpHCDsKgsY82+nBUSsklLzYa8XjxXAHtKj0Niv062F1E/iRwAzS1PaQExwYkmam+S4V5ws4C4iLajEkwCaswrvQXCkyQEH5ZuT/Qzo3C5slGLvgmhLJcH1SMqwQ+bFU9oYLrJuElgfNG5hCTlG+R5QJ11GJ7KAuTI+/TU0UbA2y109WRZUdV5M2LgeCcM2J7Cs8Ief2baIMT3DC4wjk1D7RnDGozviauEXgAn6q4E43VzFE/jkqpePTivqgcfDX2Gxdn7O/1aXoLl1n9BPUaznVwZAwYi1ptrrL9Xkgh/L7GSlYlyt9fE0f8iSF8+DPQZ2vg0M8n6zUc4JJlcK/jW2tlVvI69nFOuEx4WOD8IEug0H1TFcdiMc9rrVw477lSKDon20t96ryiHuRPbjjkGTVQCzUN+lf1nrEwWexFiCU4hfIkYTdhisVhSB8+sRbj3ph1slri9frwYfquwC8UWIxaOfH/npBS334uTJyfCpwv8xVosaPViYUjVd4g7+Xlnue03ptx2T6mQqv6BBNng7BYiJ1EJ8h3nVAlp6xY5CBXjFEbNW4QsmLH7mMsxs7OV8WxgvX7ccQ9Qyj6urUIzD3TJcJGoT9HFa+JSewqHp1RKzVTexXcGIuxMwZitRAj4NPyu1pgEUIKg9sC4R7hfSGGIz74EoNYVUw8hfmYoQFaoEkMT8YgFTeFbrdxw3mZsFkYJt5rantUWC6cI8wW6jTOiRcJKwTOK7cIw7jSRh/64oNvnYY2aIRWaIZ2w7iiOdozBmbjHGAUDRG4FbGTwD1KwE3SFya32rTGGANuGPP0Y9dJVm9oOxa/jjVZr29cAVfAFXAFXAFXwBVwBVwBV8AVcAVcAVfAFXAFXAFXwBVwBVwBV8AVGEEF/gdmWb8rEpz33AAAAABJRU5ErkJggg==;imageBackground=default;fontSize=15;backgroundOutline=0;imageBorder=none;fontColor=#000000;" vertex="1" parent="1">
                    <mxGeometry x="-24500" y="14880" width="85.53" height="88.21" as="geometry"/>
                </mxCell>
                <mxCell id="PQXVnNhZtj9RLlJGFQYp-40" style="edgeStyle=none;html=1;fontSize=15;" edge="1" parent="1" source="PQXVnNhZtj9RLlJGFQYp-15" target="PQXVnNhZtj9RLlJGFQYp-16">
                    <mxGeometry relative="1" as="geometry"/>
                </mxCell>
                <mxCell id="PQXVnNhZtj9RLlJGFQYp-15" value="WH_SILVER" style="shape=image;verticalLabelPosition=bottom;labelBackgroundColor=default;verticalAlign=top;aspect=fixed;imageAspect=0;image=https://debruyn.dev/2023/all-microsoft-fabric-icons-for-diagramming-old-version/Data_Warehouse.png;fontSize=15;" vertex="1" parent="1">
                    <mxGeometry x="-24297.77" y="14880" width="85.53" height="88.21" as="geometry"/>
                </mxCell>
                <mxCell id="PQXVnNhZtj9RLlJGFQYp-16" value="WH_GOLD" style="shape=image;verticalLabelPosition=bottom;labelBackgroundColor=default;verticalAlign=top;aspect=fixed;imageAspect=0;image=https://debruyn.dev/2023/all-microsoft-fabric-icons-for-diagramming-old-version/Data_Warehouse.png;fontSize=15;" vertex="1" parent="1">
                    <mxGeometry x="-24080" y="14880" width="85.53" height="88.21" as="geometry"/>
                </mxCell>
                <mxCell id="PQXVnNhZtj9RLlJGFQYp-18" value="" style="rounded=1;whiteSpace=wrap;html=1;fontSize=15;" vertex="1" parent="1">
                    <mxGeometry x="-24650" y="15340" width="665" height="410" as="geometry"/>
                </mxCell>
                <mxCell id="PQXVnNhZtj9RLlJGFQYp-19" value="share_file workspace" style="shape=image;verticalLabelPosition=bottom;labelBackgroundColor=default;verticalAlign=top;aspect=fixed;imageAspect=0;image=https://debruyn.dev/2023/all-microsoft-fabric-icons-for-diagramming-old-version/Workspace.png;fontSize=15;" vertex="1" parent="1">
                    <mxGeometry x="-24565" y="15370" width="45" height="45" as="geometry"/>
                </mxCell>
                <mxCell id="PQXVnNhZtj9RLlJGFQYp-37" style="edgeStyle=none;html=1;entryX=0.5;entryY=1;entryDx=0;entryDy=0;fontSize=15;" edge="1" parent="1" source="PQXVnNhZtj9RLlJGFQYp-20" target="PQXVnNhZtj9RLlJGFQYp-35">
                    <mxGeometry relative="1" as="geometry"/>
                </mxCell>
                <mxCell id="PQXVnNhZtj9RLlJGFQYp-20" value="LH_Shared" style="shape=image;verticalLabelPosition=bottom;labelBackgroundColor=none;verticalAlign=top;aspect=fixed;imageAspect=0;image=data:image/png,iVBORw0KGgoAAAANSUhEUgAAAKAAAAClCAYAAADbAvaeAAAEDmlDQ1BrQ0dDb2xvclNwYWNlR2VuZXJpY1JHQgAAOI2NVV1oHFUUPpu5syskzoPUpqaSDv41lLRsUtGE2uj+ZbNt3CyTbLRBkMns3Z1pJjPj/KRpKT4UQRDBqOCT4P9bwSchaqvtiy2itFCiBIMo+ND6R6HSFwnruTOzu5O4a73L3PnmnO9+595z7t4LkLgsW5beJQIsGq4t5dPis8fmxMQ6dMF90A190C0rjpUqlSYBG+PCv9rt7yDG3tf2t/f/Z+uuUEcBiN2F2Kw4yiLiZQD+FcWyXYAEQfvICddi+AnEO2ycIOISw7UAVxieD/Cyz5mRMohfRSwoqoz+xNuIB+cj9loEB3Pw2448NaitKSLLRck2q5pOI9O9g/t/tkXda8Tbg0+PszB9FN8DuPaXKnKW4YcQn1Xk3HSIry5ps8UQ/2W5aQnxIwBdu7yFcgrxPsRjVXu8HOh0qao30cArp9SZZxDfg3h1wTzKxu5E/LUxX5wKdX5SnAzmDx4A4OIqLbB69yMesE1pKojLjVdoNsfyiPi45hZmAn3uLWdpOtfQOaVmikEs7ovj8hFWpz7EV6mel0L9Xy23FMYlPYZenAx0yDB1/PX6dledmQjikjkXCxqMJS9WtfFCyH9XtSekEF+2dH+P4tzITduTygGfv58a5VCTH5PtXD7EFZiNyUDBhHnsFTBgE0SQIA9pfFtgo6cKGuhooeilaKH41eDs38Ip+f4At1Rq/sjr6NEwQqb/I/DQqsLvaFUjvAx+eWirddAJZnAj1DFJL0mSg/gcIpPkMBkhoyCSJ8lTZIxk0TpKDjXHliJzZPO50dR5ASNSnzeLvIvod0HG/mdkmOC0z8VKnzcQ2M/Yz2vKldduXjp9bleLu0ZWn7vWc+l0JGcaai10yNrUnXLP/8Jf59ewX+c3Wgz+B34Df+vbVrc16zTMVgp9um9bxEfzPU5kPqUtVWxhs6OiWTVW+gIfywB9uXi7CGcGW/zk98k/kmvJ95IfJn/j3uQ+4c5zn3Kfcd+AyF3gLnJfcl9xH3OfR2rUee80a+6vo7EK5mmXUdyfQlrYLTwoZIU9wsPCZEtP6BWGhAlhL3p2N6sTjRdduwbHsG9kq32sgBepc+xurLPW4T9URpYGJ3ym4+8zA05u44QjST8ZIoVtu3qE7fWmdn5LPdqvgcZz8Ww8BWJ8X3w0PhQ/wnCDGd+LvlHs8dRy6bLLDuKMaZ20tZrqisPJ5ONiCq8yKhYM5cCgKOu66Lsc0aYOtZdo5QCwezI4wm9J/v0X23mlZXOfBjj8Jzv3WrY5D+CsA9D7aMs2gGfjve8ArD6mePZSeCfEYt8CONWDw8FXTxrPqx/r9Vt4biXeANh8vV7/+/16ffMD1N8AuKD/A/8leAvFY9bLAAAAOGVYSWZNTQAqAAAACAABh2kABAAAAAEAAAAaAAAAAAACoAIABAAAAAEAAACgoAMABAAAAAEAAAClAAAAAEzEtMMAABB8SURBVHgB7Z1rzFxVFYYRhLbcJBRCIdiPcisiUpSWm/yQSzVA1CalBlIDISlSJUgiKAYwBlL4ZRQxhNIAYuIfWiEE0GJCQDQGSgETKCjUYCkkUG5WCnIVfZ/4DZkOZ85Ze5+zz2VmreTNmTl7r7Xe9e49Z85lf/Nts42bK+AKuAKugCvgCrgCroAr4Aq4Aq6AK+AKuAKugCvgCrgCroAr4Aq4Aq6AK+AKuAKugCvgCrgCroAr4Aq4Aq6AK+AKuAKugCvgCrgCroAr4ApEKPCJCJ9RdZmlwk4Tjhb2nizyRW3XCL8V/jG5zzeuQKUKHKRotwofCv8dAtroQ183V6AyBb6hSFuEYRNvcD998XFzBUorcLEiDE4w63t83VyBaAWulKd1sg3rRww3VyBIAS66rhGGTarQ/cTyC7mgIRjfztup9JuF0ElW1P8mxSS2myswVIHt1bJSKJpMse3EJoebK/AxBaZpD/fxYieX1Y8c5HJzBT5SYBe9+oNgnURl+5GLnG6uwDa7S4OHhZhJxVdq7Fc2OcntNsYKzFDtTwgxk48LFS4qyly0kBsObmOowIRqXi/ETL6fy6//tgqv2RcTCw5wcRsjBWar1ueFmAmzLEcn2mJibpQfnNzGQIE5qnGTEDNRvm/Qhz4xseEEN7cRVuAY1fZPIXSC/Ec+SwN0oS8+oXngBke3EVTgJNX0phA6Kd6Xz+IIPfDBNzQfHOHqNkIKfE21vCOETgZ8vl5CB3xj88LZbQQUOFM1xB6JTq6gfmLEHnnh7tZhBb4l7rHnYsdVWDexYs89qcGtgwpcJM6hX7n0f1k4IkG9xCR2DCdqceuQAleIa8xAc2/wkIR1Ejv2/iM1ubVcAZ5IxC4k/bt896uhPnKQK+YD4gtbaxig2BTbypFFnzEDu05+vT+xjM0f4kcucsZwpUZqdWuRAizyvFWIGdC18pveQC3kJHcMZ2r1ha0NDFpWyqnaGbuQ9AH57poVtKZ95IZDzCSkZmp3a1CBMgtJV4v3tAa591LDAS4xk/B++fnC1p6SNW9ZzLlGiBm4VfLboWa+eengAqeYWtDAF7bmqZugbYZiPiHEDNgv5bddAk5lQ8IJbjE1PS4/NHGrQYEJ5VgvxAzUtfLjVk1bDW5wjKkNTdDGLaECBys2izdjBihvIWlCylGhyyxsRSO3BArMUcxNQszk+0ECPqlDwjmmVjRCK7cKFThGsV4XQgeEn0tbWiGPukPBnRpC60YrNHOrQIETFWOLEDoILMFaXEH+pkNQA7WE1o9maOdWQoGvyvdtIVT8d+SzoETetrlSCzWF6oB2aOgWoUDTC0kjKCd18YWtSeXdOvi5ehuzkHSz/KpcSLo1q+bfURs1hh4J0RJN3QwKXKQ+oQLTn8WenzfE73oXavSFrYlG8QrFjZl8L8jvkESc2hiWWqk5Ris0dhtQgCcAPxNiBK1rIekA5cbf7icGsQtb0RrN3aQAiytvFGImX90LSds2YGUWtqI52o+1lVlI+oiUmz7W6v2/eDRAi5gP8K3yG9uFrVNV/N2Rwv1Rfk0uJFX6VhlaoEnMJGQMGIuxMhZR3i/ECNaWhaRtG7BpIlRmYevObSsoFR8WT64RYibfb+TXpoWkqTSKjYs2aBSjLWPC2Iy07aXqHhdiBLpFfm1cSCparTI0ukWI0ZixYYxG0maqqmeEGGF+IT+/bWCfFmiFZjFaM0aM1UhZmYWkV42UEvUWg3Yxk3Cj/EZmYevnVMxLkUJcIj+3cgqgYcwkZMwYu04bv3u8SQgVgEWY3+505e0ij5YxC1sZu87+djW3Wv4mhE4+Fl9+U3CrVgE0jVnYyhgylp2zFWIcOvlGbSFp2wYtdmErY9kpmyu2oYf8t+Qzv1NVdpMsGqN1yMGBsWRMO2N3iGlIgSyy/GJnqus+UbQOXdjKmHbCWKHxgWCdgOOykLRtgxe6sJUxZWxbb98RQ+vkG7eFpG0bvM+IUMjC1k7cmVhpnIBvqB8CuDWrAGPAWFgOGoxt6+1JMbQU86PWVzI+BBkLy5gxtq23f4mhpZiDWl/J+BBkLCxjxtg2YiELAfgTQMtS7+3VjxNbt+YV+KQocJO6yLgd08iKpJAJyCfJYiExLfG8TzkFWj1uliNaufLd2xXIUcAnYI443pReAZ+A6TX2DDkK+ATMEceb0ivgEzC9xp4hRwGfgDnieFN6BXwCptfYM+Qo4BMwRxxvSq+AT8D0GnuGHAV4VOM22gp8SeV9SuC58BeELwt7CJ0zy0Nt62OfzhU/QoT51vuK8Duhf0xbX2I/2bzXrS/ECX6kwEl69ZTQiQNH3qTrb/uoOn/RCQV2FMtfN8U0ZOWK9VMSErOpuj1vSxTwq+CWDMS40vAJOK4j35K6fQK2ZCDGlYZPwHEd+ZbU7ROwJQMxrjT8SUjcyM+U23nCPIGrfv6dwg3CBqENNiESPX7wWSvA7znedNX67/Xlve5qfVbep6hj1o8AsW+RNUjCfguH8Pu39p+aMG/y0HmTrr8tOZEGE8xR7neF/nr7X7+ntiMa5Hd4AT+489sxnbR+ofNed7I4I2l+SSqvdtpuN8ZK0W2Vgd9dKRLXEbNI+F57HVyayHGoklp+G5E/4J/VAMEJ5bT8ehk1HNYAv9IpexOsaFs6UUsD3CleRbX32q9voIbrAvjxb7w6Zz1xi7adK8xA+Ez1Kaq7v50jUZ1HGY7Oob8TvdhQd6u69Auc97pVpCsgc4BivCrk1ZzVdp986liYQY57I/i9Jp8Dhc5YlshZ+zpTkIHodPXhPwxl1WnZV8f/Q7m4BL/18u3M6miL4PQZFdtbhTwqWOvO6sfX4vEJBTlOsbn1k5Xbuu8x+e+TkGNloa0FVZawwUD87cRGwVpzXj++6lL8YuxsxY05Ncji+rxiHSm02rKIZ+1rdREF5PiNvEuFskeVQV1eUcyjCnKHNM9V55eFwTxl3lPz5QIatNKsxbWSvIEUj6nWCdY6Q/vxz3ouFMpcmOB7gfC2EJrf2v9JxT5NaJ1ZC2gd8RxC/Ev7swQe1lvrK9vvEeWaL4TayXKom+fZyolGrTCr8K0gO4QEq394VrtEuE14U7DWVXU//hrtMoFzL/4j+qCxjzb6cFSqOr81HhrxePFcAe34CebKLOTrAMIWC4lpiRfaZ6YclgrzhJ0FeCPajEkwCaswHuwvFJggx5YMyI1rLno2T8bhD8knhLJcH1SMqwQ+bFOEKgyumwT+7SvnjYw3k5Sj83KBOpKY9ROTJLkx6Onqx7IjK9fYfgjOOSO2p/CMEBsrlR+c4IbBFc6pcvXioj1jkMR6SYq2SZIbghYtlSribW1/UVwGb1nsr33st8ZI3Q8us4R+g3MdHPlmYCwqN6tolSc2BlylflaOsf0eUo6JIXwO1v5na+BQxB0OcMkyuFNDUYyy7SuzkpfdZyVVNk+sf1U3ZbPq5LznSqHonGwv9anzSnWQK7nhkGfUQC3UNOhf1XvGonKzkqs8sTFgqntja5T/aCMHuk0RfiJ8KFg1K9uPXOQkt9WoidrK5s7yZywqt6xEWfsqT2wMyDPNLD6x+zYo3mIh9qr+BPmuE2LzW/3IQa4YozZq3CBY81n6MRaVmyUxfZqy85XYyjGvH+dIZwhFX7eWOnmstUTg1kRezpg2YhK7ikdn1ErNVZ0fMhaVm1WkyhMbAzIQqwUrz/5+T8vvaoFFCCkMbguEe4T3hf7cIa/xJQaxqph4CvMxQwO0QJMQbr2+jEESbr0ERVvlb8y44bxM4IbuMJ6sTnlUWC6cI8wW6rTdlGyRsELgHGyLMIwrbfShLz741mlog0ZohWZoN4wrmqN90JMSzgGsRmKLhcS0xIvpgwjcithJ4I+EADdJX5jcatMaQy9uGPP0Y9dJVm9oy79QfUWw6j7pmnyzozLsK7DlSAfeErjxzRE6yEImi1WIkJhBZL3z6Cmw7eiV5BV1SQGfgF0arRHk6hNwBAe1SyVx/8ctXIGZcjlPmCdwzvuIcIOwQWiDTYhEjx981grwe443XTUuQizoan1W3qeoI1d9g1qwb5E1SMJ+CxU7ix93AViW1VkbFHzY+84WaCBetOTrPcU4whAnVZfDFfhdYdjY0Oa/jpVK/Rri3pEzuL1Bv70GHsNSrDLwu2uYc9v39wQu2ra9jlh+h8rRssLFfx0rVuECP+v6sSkFcbrafKeIF334eu3XN1DkdQH87m6AX+mUrxsLbPIcqHSRQwKcaay9NwH5sB42JFaK3RydQxc5LE5BJGXMvyh4T+C87bUpSTQQ+wDlfNVYe78u98mnjseS5Lg3gh8LCw4UOmO/EtN+gYe95pM4vzNV5ROdrmYesg+rtWj/JfnhK2m9uAS/9fLdoxIWNQQ5K6BQLvd/KOxSA69UKfZWYJYgFU2yvHY+jMenIqi4xwnc+snjUNT2mPz3ERqxkK8Ilgu9JEwNYIo4Twusa6vCblKQm6sIVBCDRZnccvl0QT9LM+fOTMK/WjoH9Jmtvn8WOEqXNZapLRD4wLXabhS7ok9UqvaHlTtosWOEkqxtu1Qoe1QZ1IB1fUdF8BnmMlcNLwuDecq8p+bLBTRore0vZu8IZQqN8eWr7LOJVTlV8dclrA3dLhRCvnXUfSvD9wLhbSFGR4vPk4p9mtBa+7GYWQqpss+KRGpwOsG57doaa2LhQsxF2skN8DxbOUNOudQ9vXGIfkCocoLlxfpQuTjfqcJY/cN9yiXCbcKbQl7ulG1PKfdlwpHCDsKgsY82+nBUSsklLzYa8XjxXAHtKj0Niv062F1E/iRwAzS1PaQExwYkmam+S4V5ws4C4iLajEkwCaswrvQXCkyQEH5ZuT/Qzo3C5slGLvgmhLJcH1SMqwQ+bFU9oYLrJuElgfNG5hCTlG+R5QJ11GJ7KAuTI+/TU0UbA2y109WRZUdV5M2LgeCcM2J7Cs8Ief2baIMT3DC4wjk1D7RnDGozviauEXgAn6q4E43VzFE/jkqpePTivqgcfDX2Gxdn7O/1aXoLl1n9BPUaznVwZAwYi1ptrrL9Xkgh/L7GSlYlyt9fE0f8iSF8+DPQZ2vg0M8n6zUc4JJlcK/jW2tlVvI69nFOuEx4WOD8IEug0H1TFcdiMc9rrVw477lSKDon20t96ryiHuRPbjjkGTVQCzUN+lf1nrEwWexFiCU4hfIkYTdhisVhSB8+sRbj3ph1slri9frwYfquwC8UWIxaOfH/npBS334uTJyfCpwv8xVosaPViYUjVd4g7+Xlnue03ptx2T6mQqv6BBNng7BYiJ1EJ8h3nVAlp6xY5CBXjFEbNW4QsmLH7mMsxs7OV8WxgvX7ccQ9Qyj6urUIzD3TJcJGoT9HFa+JSewqHp1RKzVTexXcGIuxMwZitRAj4NPyu1pgEUIKg9sC4R7hfSGGIz74EoNYVUw8hfmYoQFaoEkMT8YgFTeFbrdxw3mZsFkYJt5rantUWC6cI8wW6jTOiRcJKwTOK7cIw7jSRh/64oNvnYY2aIRWaIZ2w7iiOdozBmbjHGAUDRG4FbGTwD1KwE3SFya32rTGGANuGPP0Y9dJVm9oOxa/jjVZr29cAVfAFXAFXAFXwBVwBVwBV8AVcAVcAVfAFXAFXAFXwBVwBVwBV8AVGEEF/gdmWb8rEpz33AAAAABJRU5ErkJggg==;imageBackground=default;fontSize=15;backgroundOutline=0;imageBorder=none;fontColor=#000000;" vertex="1" parent="1">
                    <mxGeometry x="-24406.269999999997" y="15440" width="85.53" height="88.21" as="geometry"/>
                </mxCell>
                <mxCell id="PQXVnNhZtj9RLlJGFQYp-21" value="Quickbook" style="image;aspect=fixed;html=1;points=[];align=center;fontSize=15;image=img/lib/azure2/general/Files.svg;" vertex="1" parent="1">
                    <mxGeometry x="-24505" y="15560" width="64" height="70" as="geometry"/>
                </mxCell>
                <mxCell id="PQXVnNhZtj9RLlJGFQYp-22" value="printprofit" style="image;aspect=fixed;html=1;points=[];align=center;fontSize=15;image=img/lib/azure2/general/Files.svg;" vertex="1" parent="1">
                    <mxGeometry x="-24375" y="15560" width="64" height="70" as="geometry"/>
                </mxCell>
                <mxCell id="PQXVnNhZtj9RLlJGFQYp-23" value="cost allocation" style="image;aspect=fixed;html=1;points=[];align=center;fontSize=15;image=img/lib/azure2/general/Files.svg;" vertex="1" parent="1">
                    <mxGeometry x="-24235" y="15560" width="64" height="70" as="geometry"/>
                </mxCell>
                <mxCell id="PQXVnNhZtj9RLlJGFQYp-24" value="master data" style="image;aspect=fixed;html=1;points=[];align=center;fontSize=15;image=img/lib/azure2/general/Files.svg;" vertex="1" parent="1">
                    <mxGeometry x="-24104" y="15560" width="64" height="70" as="geometry"/>
                </mxCell>
                <mxCell id="PQXVnNhZtj9RLlJGFQYp-26" value="One Lake" style="shape=image;verticalLabelPosition=bottom;labelBackgroundColor=none;verticalAlign=top;aspect=fixed;imageAspect=0;image=https://www.comset.co.uk/wp-content/uploads/2024/01/one-lake-logo2.png;fontSize=15;fillColor=#09555B;strokeColor=#BAC8D3;fontColor=#000000;container=0;imageBackground=default;" vertex="1" parent="1">
                    <mxGeometry x="-25178.5" y="15513.3" width="46" height="47.12" as="geometry"/>
                </mxCell>
                <mxCell id="PQXVnNhZtj9RLlJGFQYp-33" style="edgeStyle=none;html=1;fontSize=15;" edge="1" parent="1" source="PQXVnNhZtj9RLlJGFQYp-28" target="PQXVnNhZtj9RLlJGFQYp-18">
                    <mxGeometry relative="1" as="geometry"/>
                </mxCell>
                <mxCell id="PQXVnNhZtj9RLlJGFQYp-34" value="&lt;font&gt;One Lake Sync&lt;/font&gt;" style="edgeLabel;html=1;align=center;verticalAlign=middle;resizable=0;points=[];fontSize=15;" vertex="1" connectable="0" parent="PQXVnNhZtj9RLlJGFQYp-33">
                    <mxGeometry x="-0.1279" relative="1" as="geometry">
                        <mxPoint x="1" as="offset"/>
                    </mxGeometry>
                </mxCell>
                <mxCell id="PQXVnNhZtj9RLlJGFQYp-28" value="One Lake Explorer" style="image;aspect=fixed;html=1;points=[];align=center;fontSize=15;image=img/lib/azure2/management_governance/Managed_Desktop.svg;" vertex="1" parent="1">
                    <mxGeometry x="-25237.5" y="15430" width="89.63" height="83.3" as="geometry"/>
                </mxCell>
                <mxCell id="PQXVnNhZtj9RLlJGFQYp-29" value="User" style="image;aspect=fixed;perimeter=ellipsePerimeter;html=1;align=center;shadow=0;dashed=0;spacingTop=3;image=img/lib/active_directory/user.svg;fontSize=15;" vertex="1" parent="1">
                    <mxGeometry x="-25310" y="15460" width="40" height="108.11" as="geometry"/>
                </mxCell>
                <mxCell id="PQXVnNhZtj9RLlJGFQYp-38" style="edgeStyle=none;html=1;fontSize=15;" edge="1" parent="1" source="PQXVnNhZtj9RLlJGFQYp-35" target="PQXVnNhZtj9RLlJGFQYp-14">
                    <mxGeometry relative="1" as="geometry"/>
                </mxCell>
                <mxCell id="PQXVnNhZtj9RLlJGFQYp-35" value="Shortcut" style="shape=image;verticalLabelPosition=bottom;labelBackgroundColor=default;verticalAlign=top;aspect=fixed;imageAspect=0;image=https://debruyn.dev/2024/all-microsoft-fabric-icons-for-diagramming/links.png;fontSize=15;" vertex="1" parent="1">
                    <mxGeometry x="-24775" y="15120" width="90" height="90" as="geometry"/>
                </mxCell>
                <mxCell id="PQXVnNhZtj9RLlJGFQYp-41" value="Data Factory" style="shape=image;verticalLabelPosition=bottom;labelBackgroundColor=default;verticalAlign=top;aspect=fixed;imageAspect=0;image=data:image/png,iVBORw0KGgoAAAANSUhEUgAAAEYAAABGCAIAAAD+THXTAAAXDUlEQVRoBd2aeVBTWb7H55/3NOSee+2pmXmvpmZ06s3rejUz3S2KAiEEspAEAqjshCw3LEnYVxHc0dZuF2Tfw76jrSIq+yKruLMGRFlcutveprune7rttiWvzrlJwKXRDkzVq0d9y0olN3A+fr+/7zk38Cvd/7uvX5lG9PjJ3+98mqL9SDn6IHD4fuCte0E355Q35pTX55RX55RXZlWDs6rLs6qBGVXfjLp3Rt09rb40re66q+6YDu6cCbn+0fGvv79n2o9+5btMRJr9ovjDH/zHPvIb+dBv+KFk6KHk5kPJjYeSaw+kV+5LB+9LL9+XDdyT9d2T987Ju+dkl2blnbPyjhmybYZsmVH0fa66NLP7ydPvX7k+Ey4wEWny0XtTX0ivz/penRFfnREPzogHpv36p/1670J135VcuiPpvCNpvyNpm5K0Tkmab0ubJmUXJ2UXJmUNk7Jzk/LG2YBH34yasOJXvsVEpOnPCqa+VFydEV+ZEV+eEfdP+/VN+/UYYLruSDruSNunpG1Tkpbb0ubb0sYFGNlZrey0Vn7xQdCtR5WvXJ8JF5iI9ODLi2OfkYOz0Jw+ZE7PXUn3XclimMXmnJ+UNUzI6idkZ7TyD7Tyk1r5udnAxjs7f5r/0YRFL/0WE5G++G5scE4yOCdZMOcuTFoHdEbWOiVtmZI23ZY1TsovTMrPT8rrJ+RnJ+SnDTy14/K6CfLkVMAn/5xcen0mvGoi0uOfvuqfVQ3ekxrNgZMzJW1FPFTS0OTIz01CmDNayHNKK6/TymvG5dXj8sox+el7yv6HRSYseum3mIg0r5sf+uj9648UXc+YI2u+LWu6LadgGibl5ybkZ7WQhwpbrR6GrBgjy0YVFZMBVdrQrx9/svQSf+mrJiLpdLrpv5+5/llAJ6wBWeuUrHkKwhiT1oDCtmDOODSnaoysHCPLx8jSUbJ4RFE4QlbNqS7dX2GjTEf64rvbHdOKzhk54pEjc+Dk6M2ZgLX2gZY8qZUbzSmH5pAlo2TRCKkZURSMKDTj/kWTygf/GPulVixxvelIT+ef9M7u6nno3zy1UAMNk2T9JAzbaQhD1o2T0JxxOZW0EmgO5CkYIfOHydxhMnuI1EwFlU8kfvfkH0us8he9ZDqSTqe7/fnZvkfKi7dhpyEYkqq1U1qyTkvWjpPV48akKUpGFEUjZCE0B8LkDJFZQ2TGLTLtFpl3V3luOvWnpytT6MtC+vrxh013VI3T/ucmyfoJ8vQEiZIGeWq0ZNU4qoExsmRUUYx4CkYURnMyb5HptxSpN8mUG/ITN2XZU/5Ns/lP53/6RYa89OJlIel0usEHmW0fKs9qSdTR5EmtolarqB5XVI4p9GGDMIpCCKPIHVbkDBvMuUlCnpvyEzekydckyTckGZPkuemMx0/++dKFvv6Ty0X6+Nuxc3cDzkwqTmrJWq2iRquoGocwqNagOShpijwIo8geJhfMgTCy5OuS49clx675Hb0qPnpNnDohq5jY+/G3M68P8OKVy0Wa1813zR678EBZi2Coji4bpSZHoRlR5I1Q5iiyhhQZt8hUKmyUOdclx6/5IR7f96/4vAflnTwqTh0K6P+w3mS7louk0+k++mb85J3Amkn/8jFF2aiidFSftIIRRe4IMgfCKNIWYGTJ16XHEc/Rq+IjV30pmMODXu9e9jw44Hn4uteRYZ+84eirHzd9++NXL/qw9DMrgKTT6TrnMk7fV5WOLJgDeYYV2UOKzCF/VAOoCX7OnEHvQ5cpHo8DAx5J/W5J/W6HbngeuuFx4nrQ2anM0c96v3r86Y8/vdb91cogffHd/ZrbYeWTAfrJGVHkDEGejFv+i805cUN6/Lrf8WuSo9eM5vgcHvQ6BM2BMAf63ZP63fb3bdvbu3VP75Y9vVv2X9l68KbbngHXfX2eqddCS0eTTk2mNtzJvTitaZwpapsrv/6o9avvP13s28og6XS6Gx/XV82pC0b9oTnD/plDivQhRerN58xBTXBN/D4K2+Er3nqey54HBtyTBtz397vt69u2tw/y7O513dXjsrPbOfGSKLHHeWev884B591XXA7c3HZoyOvIiPjYmDxFG5A+pioY3X7rUYeRasWQnjz94ez04dIZNUzaEGWOIsVY04YmOHLV9/2r+iY4pB8eD8jT76bn6d26p2fL7h7XXd0uid3OCZdECZdEO7qc4jsd4zqEcR2ChEtOu7q37O1xT+rzfrff78ggmT4cnD8ZOfyJnmrFkHQ63eP5r6vv7szWBlFhS71JopqGYYO1hsJGNRtlzrvQHI+kfvf9/dv2922D/qC87e5x3dnjknhJtAPxxHc6bu8UxnUIYzv4Me38+E7HxEuuu7vd9vd6HewXvzcgPzYYkD0aphnb/uXjRzqdTo80/fntc5PVp8dLzmhLKZ2dKDWqfqJUL21pPaXxkvoxpNHiekojxRdGa9IHorO1QelDCrSHom0H1TQyR99shwY9UbPpm+A5GCpsi8yhYIQx7fzodofodoe4DmFCl8uuS257ezwP9PkeHpAdHfRPuaYquht745MWPVL/vQ5W8Z82lq7ZWLLGonTNptI1m8rWWFZAWVWssa5cY1MFxahcY1OxhllG2JZCsYoJVhFhq8FtC6BYebhtDrBMpoWcY2aNBMIzAbWHLjQBmpxBz4PIHCps+4zmUGHr0YcNJq3LaI4gBsFEtfGi2nixHfz4TlFi17Y93R77e73f7ZccGVSkXFNqbkc1z8D7FOiS/xnnDcVr3ski1mcT5jnEhlwoi3yoTQXE5gLCsoCw1BBWhYSVhrDKJ6zzcOscKEY2zsjCrTOAdTpgpEFZJdMZySC2hZs2pNDvoVQTDHrrJ4dqAhg21ASGpL1gDuSJ7YDmQB4EE9HKiWjlxLTzt3c6JXS57u5239/rfbDf7/3LZPLVoPzJyDOTOXokUbn5+lxiAQlR6ZHyF5CsCwkoDWGdj0OqXNwaIS1QpQJGKrA8Zmabuia+XZByU041weLJ0TeB0ZzeLcZa09fAc+YgmMhWbkQrJ6yVHd7CRkYJd3QuZO+9AfnxK4H5E5GnJ7L1SK4VFi9BynveJQqJUUgwNAQjH2fk4YxcnJGD21BgmcAmHdikAUYK2HyUZpf+Rny74PgN6eFB72cmp/+ZGnipOXEGc6LaeJGtvIhWTjiCCW22D222j2zlxrQLtnc4J3Zt3dPtkYTG6diVgNyJiNNa05CKCIrKRoMz83FmLhRFZZMJmOkYMxWzSQGbj9Hs0tbEtHCPXBMfvOyZZNxDF9XaLlRrsAm6RItqTQCbwGAOhGllhzWzQ5vtg5tZwU2s8BZOdCs/rl2U0LVl9yWYvUP90qOD/jna8FPjWUu69MIs6V0qImyKCUYRYVNIMAsISJWHwHJwmyycmYlBqjQIZnWcxkrFQ84zD1/xOTDgbujorXDPofZQtO1Qe46hplETGCYnvJUT1gJhQprtgptY6kZbdZNtWAs7qtUhtt1pR6frri63fb1eVENka8M+0Gb+DNLienhhliBMsUGFhE0B8gpR2ebgtlmAmYFBITBGMo2ZbEaeXJ8EN1N3uIeiM0EiOhPs6NLvoQYeVNMwbHByoDkt7JBm+5AmyBPcyFJdZKoamSHNdhEt3Jg2x/gOl8SurXu7vQ6ghsgaCz05nvEaSIsab7FLNsUEs4RgFhM2hTizAAlRsXKAbRYUMxOzTYN22SSbWR9b5V7yXwldjvv73RbCBs8Ei2uaH90OO9rYBPqwNbHUTbbqRlvVRWbQRRvlRRtD9gRx7c4JXVv2dHsc6PN977I8cyzk1Gu5tDRSKWFbQtgW4axCnKXBbfNxVi5g5QBWNqRiZQLbdIwFQ0i3PrqKn/0b9Xnr3b1bdva4LA7bczVNmWMMGzSnkalEMIEXGIEXrNWNtqFNVPZECZ1wnJL6fA5flmWMBdeNLdsl2xKCVUrYlRB2xbhdIbDTALt8YJcH7AxgrCxgl45BpWHM46ttk2meZf8d3cpL7HGO73KM7VjYQxfCRjVBE2wCdaMtBRN0wSbwAsP/vJX/eSvlRWZIk31ECy+mzSm+A1Y5bIgBafqoum4s/ZcFzwrtS8ZZYpZAiyASpRL858DsMhBVOmaXYmZzbBUv4w1Z3dvR7Q7buxxj2vlRbfqafq4J9OZAGJuA89b+563Ihs2KBsugC4zgRlZ4Mye6Vbi93Xln17Z9PbAh0kZVdWNpSyFtXLLxqFnSI5URdmUGMKNdBdAxe+SYfTbGycLsMzD7dMw+DWOdoNkeWyXM/q2s7p3wFnZ0Bz+yjUvxBKMmoCZHedEmyACjOG9JNmyWN2yWn9sUcMFadZEV2sSJauXHtYnQ7uR5sN8vdURZuzTSz50eXuJSGWFfjlRG2JcS7GLAKQLsIsDWAPsCwM4H7FzAyYFUnCyMnYmx0+nsVDrr+GrW8dWCrN/4VP2P6jwjDB0OQprtqLBRSUPmWCoaLCkYab2FtN7CmL3IFofYNqeETqohxCkjQTWjqUu59OIZ78XGM7pEIbErCHY5wS4j2CU4pxhwigG7EHA0gFMA2HmAk4txspEyMU4GxkFgdidorOOruWm4q+YPfnVvBTZYqRqZ6iZW4EWbADQ8yJxNsnObpPUWkrMbJWc3kg2bAy8w1I324c28mFbH+A542Evq8z0xHFi9gkh2yCV2BcFBYpcRnBKcWwK4xYBbiKQB3HyMm4dxczHoGIoiB7LR2Wl0doqZXfJq+xM0fgbhqvm9Z8Wbkg/elp+zIBs2k+et5OctZQ2bpfWbpOfMZQ3v+F/cqGyyDG1hRrax4zr4CZec0b2TT/K/CqmS4FbiUBU4rxx3KAW8YihuEeBqAE8DeAUYD4FxczBuNsbNwjiZGDeDzkunc1Pp3BQzdvJqzgkaL5UuyCREeb/bUvSHbaV/cq/4s2f1m66lFs5Ftu6Vtt7Vdn61PFmdQHFKFHbBdU/v1kODXseHAqpGU1YgeLDuyogFlxASrwqHqsQdKgC/DIpXgtiKAK8Q8DSYQz7Gy4dsvByMlw3ZHLLoDhl0h3Q6Px3+y0sz46WacVNpnBOruSmreak0QcaqN6PYwCv0DbHyDXHwG74hv/YN+7VP2O8kYeY7goJPi9O18uqxf8EscSqgS7wq3KEa51fjDlW4QyXgVwB+OXAoBQ4lgF8M+EWAX4jxNRi/AMohD3PIxfg5GD8bKYsuyKTzM6CoBw4Q0kyY+e9/juCs3hZB9wimu4fR3cIxtwjMLZK+LfrfnOJ+7RMR1hB4ajJZ75JL+cZnbi6oMx51c/HzZ7yFfellLjlUQSRKgiogqAQCBMYvA4JSICgBgiIgKMIEhZhAgwkKMEE+lDAXE+RighwoYQ4myKLrlWnmmLPqzSiOmXs48FIDrxDgEYZ7hOMeEbhHJO4evco59s9hMQWDBqTnbwEXH1uXPBAZG+/F4BmRBDW4sBYX1gChAUxQDoTlQFgKhCVAWAwcizBhISbUYI4azLEAc8xHysMc8yAhVA4mzKY75a96M5pt5kYhBQOPMKBHisDdo3H3aOC5I6bMcCAKbvDYWLrmnRxifQ5hnktsyIOyKIDapCE2a+BdumUhYV0ExSgmbEqgmOgTCDtqU6ogYN1VEtwq2A364NXg/BpcUIs71UE51gKoauBYhTlVYk4VmKgcE5VholJMVEoXldBFxXRREV1UaJCG7qShOxXQHfMxkWa1Uz7t98qtZu5hyKVg4BmKjIqARiEkwnuHzxHD/dLwx9dcqjeYFxAbCoiNGsKiEGpTMbG5mLAsgbIqIaxKCZsyKGY5YVsBxaok7CoJ+yqCXU1waqC4tQSvGneoBvwaIKgBwlogrMUc6zDRyRdUR3eupTvX0J2r6c5VdOdKM+cKpHIz5zIzl1KaXiU052Kac/FqYT7+lwQG3UuFeaoRkjF7CMkjCnePJrx3yJOL9bOk0+k+//bTvnttPXPNvXMtlPrutTyj+y3991sGFutBywDS5QctAw9bLj9sufVJ17stB/64e8MfE82RNv4xwWLtjk1rEzatTdi8dofV2h3WUPGMtfHMtduZa+Ns18bZrou1XxfDXhfNXhfNWRfFXRvFXRfJWxfpsC6CDxUuXBch/I9AT7qnCvMOAl4qAxI0avE4ET6JJ84YPvQyfvS6zAd///rbDXulZmqOWSCb5s+h+fNoCj6NFNBIIY10pMmdaTJXmtSVJt1Kk7jR/NxXiz1Wiz1pYh+aWEzz8aP5Smg+UpqPjOZN0rwVNK8AKE8lzUNF91IBn0Aob+VLkQjv+LXyndMfw783WLFPW396+tQjKwaPYgG1LVCzgMoOKO1BEAcE8UCgA1SAAPg7IYmAwgWQWwC5FZNvw+TuQOYJZF5A6g2kPkDiCyRi4CcBYikQy4AvCXwVwNf/JUheobAhPCMJnzjcK668Y4CyZMWQ8rtO4pE2IIQB1EyExAJKO6DkgCCungoiOeqpnkFyw+QeBiTvBSQ/CkkOkcQBQKzCpSG4NAyXRuGSSFwShUuicb9Y3DtmfcTB2u5BY8RWBmn60/vr4vl4OAMEWyMkW6BajMRFLvFBgNBA5QwUroDcglxyQ0Z5IJeeRfKT47IAXKYCYv83g2Nc3z0Wmleyq6xub9XpPZUf7K44daC6/mTv1S++eeYPDFYGSVmyF49hgBCrBSQ1hcTWGwWzh5ACKKOM2aOo3IHMA0gXZ0+CkwogJRmJu/fXnOzVTnz29dfzunmjFUs8WAGkgbu31kRYgjArEGIJkYJt0DjZ6seJyh41ToECEOAIApyAP0JaMAohyTwRlQ+QS3BS5pCU9MHlgW++/26J1b/0peUizc/Pe2SF41FWIGSzAYkBgpmQSmUHVPZAyQZKLghCDREoAIEIKUAE/J2pksDkWzG5G3QJlQTuL30zPKSwvfWHJ09euuJXPrlcpJ7b1/AICxBmYUCyAsEMvVEqFkRScRaQgvgIiTJqMRLqPbknHujnkfz+7Kfw10Qmfy0XSa7ZgcdsAiEbQcgm5BIap2AbEIyqXG0HVJRLPBDEB0GUSwYkf2dAuuqrnPQAgT6RxXnf//iDyTDUG5eFNPVo9j9jGCBiIwg1IFENAY1CVf4MkgNEChLqx0mfPdR75DYQ5L29QrNMmBVAOtKUj8duBKEboEIsoEv6hjCMk5oF1Ch7QTygdEBGCV8cJxDkpchJfjr/WoX2SmzTXfrxyY/Wh91BNOLRI1ENsWicIJKdfpyUDkDJB4EICZaEviHwIHfmvuiv/vntK9f6mheYjjRw9yYRYQ7C14NQc+TSxpc0hB6JDVRcoKTGSWigQkgBrr9VeV2e0r7mcl/nMtORDl/IwuPMQdg7i5B+viFUXESFGoIqiUARCHDG1du2V+S+zkJf/xoTkZ7OPxWlKfCY9RApbD0ap59rCGqcKCSqIVDvBToBpeufIsQPPv+/8ee6H375ye/jLEHk24uQXtUQVPZgSQhQ9pzwkK2xFfAXxiv7ZaJLjSNdIOKvIPwthPTOotJDDQGr3LDhGhsCZg/1npIPqzxI9IZ6y5W7KzlF1H+NiUjHmvPw2LdA2N8MSMaGQOP0EiTUENAo1HtBQjzYhXkg/MefTDz1LGGsiUhBpfF4HIW0OHvPjZONYcNdPE7UBiXAQ1z2nCpcYmUmv2Qikihdgcf+DYT9FYRR2aMaghqnF86vxg13IXsCXC3qmRgyed1LvNFEpB0fvE8kvg2i3wJRb4MocxC1AURaQEVsBhFWIMIahDNAOBOEs0CYHQizB2EcEMoDoQ4glA9ChHiki/BI7Pc/LPc491IwE5E+++aL8Kp9G94VrU8SmSe5IG0xT9pqvn+b+X438/0e5vs8zfd6me/1Nt/jiyQ23yMx3yNbv1u2YQ+pLj4299nHL13Q8p80EWn5P/hf9x3+F+q7L2wkuaBeAAAAAElFTkSuQmCC;strokeColor=default;align=center;fontFamily=Helvetica;fontSize=15;fontColor=default;fillColor=default;" vertex="1" parent="1">
                    <mxGeometry x="-24375" y="14836.1" width="45" height="43.9" as="geometry"/>
                </mxCell>
                <mxCell id="PQXVnNhZtj9RLlJGFQYp-42" value="Data Factory" style="shape=image;verticalLabelPosition=bottom;labelBackgroundColor=default;verticalAlign=top;aspect=fixed;imageAspect=0;image=data:image/png,iVBORw0KGgoAAAANSUhEUgAAAEYAAABGCAIAAAD+THXTAAAXDUlEQVRoBd2aeVBTWb7H55/3NOSee+2pmXmvpmZ06s3rejUz3S2KAiEEspAEAqjshCw3LEnYVxHc0dZuF2Tfw76jrSIq+yKruLMGRFlcutveprune7rttiWvzrlJwKXRDkzVq0d9y0olN3A+fr+/7zk38Cvd/7uvX5lG9PjJ3+98mqL9SDn6IHD4fuCte0E355Q35pTX55RX55RXZlWDs6rLs6qBGVXfjLp3Rt09rb40re66q+6YDu6cCbn+0fGvv79n2o9+5btMRJr9ovjDH/zHPvIb+dBv+KFk6KHk5kPJjYeSaw+kV+5LB+9LL9+XDdyT9d2T987Ju+dkl2blnbPyjhmybYZsmVH0fa66NLP7ydPvX7k+Ey4wEWny0XtTX0ivz/penRFfnREPzogHpv36p/1670J135VcuiPpvCNpvyNpm5K0Tkmab0ubJmUXJ2UXJmUNk7Jzk/LG2YBH34yasOJXvsVEpOnPCqa+VFydEV+ZEV+eEfdP+/VN+/UYYLruSDruSNunpG1Tkpbb0ubb0sYFGNlZrey0Vn7xQdCtR5WvXJ8JF5iI9ODLi2OfkYOz0Jw+ZE7PXUn3XclimMXmnJ+UNUzI6idkZ7TyD7Tyk1r5udnAxjs7f5r/0YRFL/0WE5G++G5scE4yOCdZMOcuTFoHdEbWOiVtmZI23ZY1TsovTMrPT8rrJ+RnJ+SnDTy14/K6CfLkVMAn/5xcen0mvGoi0uOfvuqfVQ3ekxrNgZMzJW1FPFTS0OTIz01CmDNayHNKK6/TymvG5dXj8sox+el7yv6HRSYseum3mIg0r5sf+uj9648UXc+YI2u+LWu6LadgGibl5ybkZ7WQhwpbrR6GrBgjy0YVFZMBVdrQrx9/svQSf+mrJiLpdLrpv5+5/llAJ6wBWeuUrHkKwhiT1oDCtmDOODSnaoysHCPLx8jSUbJ4RFE4QlbNqS7dX2GjTEf64rvbHdOKzhk54pEjc+Dk6M2ZgLX2gZY8qZUbzSmH5pAlo2TRCKkZURSMKDTj/kWTygf/GPulVixxvelIT+ef9M7u6nno3zy1UAMNk2T9JAzbaQhD1o2T0JxxOZW0EmgO5CkYIfOHydxhMnuI1EwFlU8kfvfkH0us8he9ZDqSTqe7/fnZvkfKi7dhpyEYkqq1U1qyTkvWjpPV48akKUpGFEUjZCE0B8LkDJFZQ2TGLTLtFpl3V3luOvWnpytT6MtC+vrxh013VI3T/ucmyfoJ8vQEiZIGeWq0ZNU4qoExsmRUUYx4CkYURnMyb5HptxSpN8mUG/ITN2XZU/5Ns/lP53/6RYa89OJlIel0usEHmW0fKs9qSdTR5EmtolarqB5XVI4p9GGDMIpCCKPIHVbkDBvMuUlCnpvyEzekydckyTckGZPkuemMx0/++dKFvv6Ty0X6+Nuxc3cDzkwqTmrJWq2iRquoGocwqNagOShpijwIo8geJhfMgTCy5OuS49clx675Hb0qPnpNnDohq5jY+/G3M68P8OKVy0Wa1813zR678EBZi2Coji4bpSZHoRlR5I1Q5iiyhhQZt8hUKmyUOdclx6/5IR7f96/4vAflnTwqTh0K6P+w3mS7louk0+k++mb85J3Amkn/8jFF2aiidFSftIIRRe4IMgfCKNIWYGTJ16XHEc/Rq+IjV30pmMODXu9e9jw44Hn4uteRYZ+84eirHzd9++NXL/qw9DMrgKTT6TrnMk7fV5WOLJgDeYYV2UOKzCF/VAOoCX7OnEHvQ5cpHo8DAx5J/W5J/W6HbngeuuFx4nrQ2anM0c96v3r86Y8/vdb91cogffHd/ZrbYeWTAfrJGVHkDEGejFv+i805cUN6/Lrf8WuSo9eM5vgcHvQ6BM2BMAf63ZP63fb3bdvbu3VP75Y9vVv2X9l68KbbngHXfX2eqddCS0eTTk2mNtzJvTitaZwpapsrv/6o9avvP13s28og6XS6Gx/XV82pC0b9oTnD/plDivQhRerN58xBTXBN/D4K2+Er3nqey54HBtyTBtz397vt69u2tw/y7O513dXjsrPbOfGSKLHHeWev884B591XXA7c3HZoyOvIiPjYmDxFG5A+pioY3X7rUYeRasWQnjz94ez04dIZNUzaEGWOIsVY04YmOHLV9/2r+iY4pB8eD8jT76bn6d26p2fL7h7XXd0uid3OCZdECZdEO7qc4jsd4zqEcR2ChEtOu7q37O1xT+rzfrff78ggmT4cnD8ZOfyJnmrFkHQ63eP5r6vv7szWBlFhS71JopqGYYO1hsJGNRtlzrvQHI+kfvf9/dv2922D/qC87e5x3dnjknhJtAPxxHc6bu8UxnUIYzv4Me38+E7HxEuuu7vd9vd6HewXvzcgPzYYkD0aphnb/uXjRzqdTo80/fntc5PVp8dLzmhLKZ2dKDWqfqJUL21pPaXxkvoxpNHiekojxRdGa9IHorO1QelDCrSHom0H1TQyR99shwY9UbPpm+A5GCpsi8yhYIQx7fzodofodoe4DmFCl8uuS257ezwP9PkeHpAdHfRPuaYquht745MWPVL/vQ5W8Z82lq7ZWLLGonTNptI1m8rWWFZAWVWssa5cY1MFxahcY1OxhllG2JZCsYoJVhFhq8FtC6BYebhtDrBMpoWcY2aNBMIzAbWHLjQBmpxBz4PIHCps+4zmUGHr0YcNJq3LaI4gBsFEtfGi2nixHfz4TlFi17Y93R77e73f7ZccGVSkXFNqbkc1z8D7FOiS/xnnDcVr3ski1mcT5jnEhlwoi3yoTQXE5gLCsoCw1BBWhYSVhrDKJ6zzcOscKEY2zsjCrTOAdTpgpEFZJdMZySC2hZs2pNDvoVQTDHrrJ4dqAhg21ASGpL1gDuSJ7YDmQB4EE9HKiWjlxLTzt3c6JXS57u5239/rfbDf7/3LZPLVoPzJyDOTOXokUbn5+lxiAQlR6ZHyF5CsCwkoDWGdj0OqXNwaIS1QpQJGKrA8Zmabuia+XZByU041weLJ0TeB0ZzeLcZa09fAc+YgmMhWbkQrJ6yVHd7CRkYJd3QuZO+9AfnxK4H5E5GnJ7L1SK4VFi9BynveJQqJUUgwNAQjH2fk4YxcnJGD21BgmcAmHdikAUYK2HyUZpf+Rny74PgN6eFB72cmp/+ZGnipOXEGc6LaeJGtvIhWTjiCCW22D222j2zlxrQLtnc4J3Zt3dPtkYTG6diVgNyJiNNa05CKCIrKRoMz83FmLhRFZZMJmOkYMxWzSQGbj9Hs0tbEtHCPXBMfvOyZZNxDF9XaLlRrsAm6RItqTQCbwGAOhGllhzWzQ5vtg5tZwU2s8BZOdCs/rl2U0LVl9yWYvUP90qOD/jna8FPjWUu69MIs6V0qImyKCUYRYVNIMAsISJWHwHJwmyycmYlBqjQIZnWcxkrFQ84zD1/xOTDgbujorXDPofZQtO1Qe46hplETGCYnvJUT1gJhQprtgptY6kZbdZNtWAs7qtUhtt1pR6frri63fb1eVENka8M+0Gb+DNLienhhliBMsUGFhE0B8gpR2ebgtlmAmYFBITBGMo2ZbEaeXJ8EN1N3uIeiM0EiOhPs6NLvoQYeVNMwbHByoDkt7JBm+5AmyBPcyFJdZKoamSHNdhEt3Jg2x/gOl8SurXu7vQ6ghsgaCz05nvEaSIsab7FLNsUEs4RgFhM2hTizAAlRsXKAbRYUMxOzTYN22SSbWR9b5V7yXwldjvv73RbCBs8Ei2uaH90OO9rYBPqwNbHUTbbqRlvVRWbQRRvlRRtD9gRx7c4JXVv2dHsc6PN977I8cyzk1Gu5tDRSKWFbQtgW4axCnKXBbfNxVi5g5QBWNqRiZQLbdIwFQ0i3PrqKn/0b9Xnr3b1bdva4LA7bczVNmWMMGzSnkalEMIEXGIEXrNWNtqFNVPZECZ1wnJL6fA5flmWMBdeNLdsl2xKCVUrYlRB2xbhdIbDTALt8YJcH7AxgrCxgl45BpWHM46ttk2meZf8d3cpL7HGO73KM7VjYQxfCRjVBE2wCdaMtBRN0wSbwAsP/vJX/eSvlRWZIk31ECy+mzSm+A1Y5bIgBafqoum4s/ZcFzwrtS8ZZYpZAiyASpRL858DsMhBVOmaXYmZzbBUv4w1Z3dvR7Q7buxxj2vlRbfqafq4J9OZAGJuA89b+563Ihs2KBsugC4zgRlZ4Mye6Vbi93Xln17Z9PbAh0kZVdWNpSyFtXLLxqFnSI5URdmUGMKNdBdAxe+SYfTbGycLsMzD7dMw+DWOdoNkeWyXM/q2s7p3wFnZ0Bz+yjUvxBKMmoCZHedEmyACjOG9JNmyWN2yWn9sUcMFadZEV2sSJauXHtYnQ7uR5sN8vdURZuzTSz50eXuJSGWFfjlRG2JcS7GLAKQLsIsDWAPsCwM4H7FzAyYFUnCyMnYmx0+nsVDrr+GrW8dWCrN/4VP2P6jwjDB0OQprtqLBRSUPmWCoaLCkYab2FtN7CmL3IFofYNqeETqohxCkjQTWjqUu59OIZ78XGM7pEIbErCHY5wS4j2CU4pxhwigG7EHA0gFMA2HmAk4txspEyMU4GxkFgdidorOOruWm4q+YPfnVvBTZYqRqZ6iZW4EWbADQ8yJxNsnObpPUWkrMbJWc3kg2bAy8w1I324c28mFbH+A542Evq8z0xHFi9gkh2yCV2BcFBYpcRnBKcWwK4xYBbiKQB3HyMm4dxczHoGIoiB7LR2Wl0doqZXfJq+xM0fgbhqvm9Z8Wbkg/elp+zIBs2k+et5OctZQ2bpfWbpOfMZQ3v+F/cqGyyDG1hRrax4zr4CZec0b2TT/K/CqmS4FbiUBU4rxx3KAW8YihuEeBqAE8DeAUYD4FxczBuNsbNwjiZGDeDzkunc1Pp3BQzdvJqzgkaL5UuyCREeb/bUvSHbaV/cq/4s2f1m66lFs5Ftu6Vtt7Vdn61PFmdQHFKFHbBdU/v1kODXseHAqpGU1YgeLDuyogFlxASrwqHqsQdKgC/DIpXgtiKAK8Q8DSYQz7Gy4dsvByMlw3ZHLLoDhl0h3Q6Px3+y0sz46WacVNpnBOruSmreak0QcaqN6PYwCv0DbHyDXHwG74hv/YN+7VP2O8kYeY7goJPi9O18uqxf8EscSqgS7wq3KEa51fjDlW4QyXgVwB+OXAoBQ4lgF8M+EWAX4jxNRi/AMohD3PIxfg5GD8bKYsuyKTzM6CoBw4Q0kyY+e9/juCs3hZB9wimu4fR3cIxtwjMLZK+LfrfnOJ+7RMR1hB4ajJZ75JL+cZnbi6oMx51c/HzZ7yFfellLjlUQSRKgiogqAQCBMYvA4JSICgBgiIgKMIEhZhAgwkKMEE+lDAXE+RighwoYQ4myKLrlWnmmLPqzSiOmXs48FIDrxDgEYZ7hOMeEbhHJO4evco59s9hMQWDBqTnbwEXH1uXPBAZG+/F4BmRBDW4sBYX1gChAUxQDoTlQFgKhCVAWAwcizBhISbUYI4azLEAc8xHysMc8yAhVA4mzKY75a96M5pt5kYhBQOPMKBHisDdo3H3aOC5I6bMcCAKbvDYWLrmnRxifQ5hnktsyIOyKIDapCE2a+BdumUhYV0ExSgmbEqgmOgTCDtqU6ogYN1VEtwq2A364NXg/BpcUIs71UE51gKoauBYhTlVYk4VmKgcE5VholJMVEoXldBFxXRREV1UaJCG7qShOxXQHfMxkWa1Uz7t98qtZu5hyKVg4BmKjIqARiEkwnuHzxHD/dLwx9dcqjeYFxAbCoiNGsKiEGpTMbG5mLAsgbIqIaxKCZsyKGY5YVsBxaok7CoJ+yqCXU1waqC4tQSvGneoBvwaIKgBwlogrMUc6zDRyRdUR3eupTvX0J2r6c5VdOdKM+cKpHIz5zIzl1KaXiU052Kac/FqYT7+lwQG3UuFeaoRkjF7CMkjCnePJrx3yJOL9bOk0+k+//bTvnttPXPNvXMtlPrutTyj+y3991sGFutBywDS5QctAw9bLj9sufVJ17stB/64e8MfE82RNv4xwWLtjk1rEzatTdi8dofV2h3WUPGMtfHMtduZa+Ns18bZrou1XxfDXhfNXhfNWRfFXRvFXRfJWxfpsC6CDxUuXBch/I9AT7qnCvMOAl4qAxI0avE4ET6JJ84YPvQyfvS6zAd///rbDXulZmqOWSCb5s+h+fNoCj6NFNBIIY10pMmdaTJXmtSVJt1Kk7jR/NxXiz1Wiz1pYh+aWEzz8aP5Smg+UpqPjOZN0rwVNK8AKE8lzUNF91IBn0Aob+VLkQjv+LXyndMfw783WLFPW396+tQjKwaPYgG1LVCzgMoOKO1BEAcE8UCgA1SAAPg7IYmAwgWQWwC5FZNvw+TuQOYJZF5A6g2kPkDiCyRi4CcBYikQy4AvCXwVwNf/JUheobAhPCMJnzjcK668Y4CyZMWQ8rtO4pE2IIQB1EyExAJKO6DkgCCungoiOeqpnkFyw+QeBiTvBSQ/CkkOkcQBQKzCpSG4NAyXRuGSSFwShUuicb9Y3DtmfcTB2u5BY8RWBmn60/vr4vl4OAMEWyMkW6BajMRFLvFBgNBA5QwUroDcglxyQ0Z5IJeeRfKT47IAXKYCYv83g2Nc3z0Wmleyq6xub9XpPZUf7K44daC6/mTv1S++eeYPDFYGSVmyF49hgBCrBSQ1hcTWGwWzh5ACKKOM2aOo3IHMA0gXZ0+CkwogJRmJu/fXnOzVTnz29dfzunmjFUs8WAGkgbu31kRYgjArEGIJkYJt0DjZ6seJyh41ToECEOAIApyAP0JaMAohyTwRlQ+QS3BS5pCU9MHlgW++/26J1b/0peUizc/Pe2SF41FWIGSzAYkBgpmQSmUHVPZAyQZKLghCDREoAIEIKUAE/J2pksDkWzG5G3QJlQTuL30zPKSwvfWHJ09euuJXPrlcpJ7b1/AICxBmYUCyAsEMvVEqFkRScRaQgvgIiTJqMRLqPbknHujnkfz+7Kfw10Qmfy0XSa7ZgcdsAiEbQcgm5BIap2AbEIyqXG0HVJRLPBDEB0GUSwYkf2dAuuqrnPQAgT6RxXnf//iDyTDUG5eFNPVo9j9jGCBiIwg1IFENAY1CVf4MkgNEChLqx0mfPdR75DYQ5L29QrNMmBVAOtKUj8duBKEboEIsoEv6hjCMk5oF1Ch7QTygdEBGCV8cJxDkpchJfjr/WoX2SmzTXfrxyY/Wh91BNOLRI1ENsWicIJKdfpyUDkDJB4EICZaEviHwIHfmvuiv/vntK9f6mheYjjRw9yYRYQ7C14NQc+TSxpc0hB6JDVRcoKTGSWigQkgBrr9VeV2e0r7mcl/nMtORDl/IwuPMQdg7i5B+viFUXESFGoIqiUARCHDG1du2V+S+zkJf/xoTkZ7OPxWlKfCY9RApbD0ap59rCGqcKCSqIVDvBToBpeufIsQPPv+/8ee6H375ye/jLEHk24uQXtUQVPZgSQhQ9pzwkK2xFfAXxiv7ZaJLjSNdIOKvIPwthPTOotJDDQGr3LDhGhsCZg/1npIPqzxI9IZ6y5W7KzlF1H+NiUjHmvPw2LdA2N8MSMaGQOP0EiTUENAo1HtBQjzYhXkg/MefTDz1LGGsiUhBpfF4HIW0OHvPjZONYcNdPE7UBiXAQ1z2nCpcYmUmv2Qikihdgcf+DYT9FYRR2aMaghqnF86vxg13IXsCXC3qmRgyed1LvNFEpB0fvE8kvg2i3wJRb4MocxC1AURaQEVsBhFWIMIahDNAOBOEs0CYHQizB2EcEMoDoQ4glA9ChHiki/BI7Pc/LPc491IwE5E+++aL8Kp9G94VrU8SmSe5IG0xT9pqvn+b+X438/0e5vs8zfd6me/1Nt/jiyQ23yMx3yNbv1u2YQ+pLj4299nHL13Q8p80EWn5P/hf9x3+F+q7L2wkuaBeAAAAAElFTkSuQmCC;strokeColor=default;align=center;fontFamily=Helvetica;fontSize=15;fontColor=default;fillColor=default;" vertex="1" parent="1">
                    <mxGeometry x="-24160" y="14836.1" width="45" height="43.9" as="geometry"/>
                </mxCell>
                <mxCell id="PQXVnNhZtj9RLlJGFQYp-45" value="" style="rounded=1;whiteSpace=wrap;html=1;fontSize=15;" vertex="1" parent="1">
                    <mxGeometry x="-24497.5" y="14627" width="485" height="117" as="geometry"/>
                </mxCell>
                <mxCell id="PQXVnNhZtj9RLlJGFQYp-47" value="Meta data, Logging and Auditing" style="text;html=1;align=center;verticalAlign=middle;resizable=0;points=[];autosize=1;strokeColor=none;fillColor=none;fontSize=20;" vertex="1" parent="1">
                    <mxGeometry x="-24320.74" y="14650" width="310" height="40" as="geometry"/>
                </mxCell>
                <mxCell id="PQXVnNhZtj9RLlJGFQYp-43" style="edgeStyle=none;html=1;fontSize=15;" edge="1" parent="1" source="PQXVnNhZtj9RLlJGFQYp-54" target="PQXVnNhZtj9RLlJGFQYp-41">
                    <mxGeometry relative="1" as="geometry">
                        <mxPoint x="-24273.789521228544" y="14724" as="sourcePoint"/>
                    </mxGeometry>
                </mxCell>
                <mxCell id="PQXVnNhZtj9RLlJGFQYp-50" value="" style="rounded=1;whiteSpace=wrap;html=1;fontSize=15;" vertex="1" parent="1">
                    <mxGeometry x="-23600" y="14670" width="460" height="670" as="geometry"/>
                </mxCell>
                <mxCell id="PQXVnNhZtj9RLlJGFQYp-49" value="Power BI Reporting" style="rounded=1;whiteSpace=wrap;html=1;shape=image;labelBackgroundColor=default;verticalAlign=top;verticalLabelPosition=bottom;aspect=fixed;points=[];image=img/lib/azure2/power_platform/PowerBI.svg;fontSize=15;" vertex="1" parent="1">
                    <mxGeometry x="-23431.39" y="14900" width="122.77" height="120" as="geometry"/>
                </mxCell>
                <mxCell id="PQXVnNhZtj9RLlJGFQYp-51" value="PoweredByPrisma_Dev" style="shape=image;verticalLabelPosition=bottom;labelBackgroundColor=default;verticalAlign=top;aspect=fixed;imageAspect=0;image=https://debruyn.dev/2023/all-microsoft-fabric-icons-for-diagramming-old-version/Workspace.png;fontSize=15;" vertex="1" parent="1">
                    <mxGeometry x="-23500" y="14700" width="45" height="45" as="geometry"/>
                </mxCell>
                <mxCell id="PQXVnNhZtj9RLlJGFQYp-55" style="edgeStyle=none;html=1;fontSize=15;" edge="1" parent="1" source="PQXVnNhZtj9RLlJGFQYp-54" target="PQXVnNhZtj9RLlJGFQYp-42">
                    <mxGeometry relative="1" as="geometry"/>
                </mxCell>
                <mxCell id="PQXVnNhZtj9RLlJGFQYp-57" style="edgeStyle=none;html=1;entryX=1;entryY=0.25;entryDx=0;entryDy=0;fontSize=15;" edge="1" parent="1" source="PQXVnNhZtj9RLlJGFQYp-54" target="PQXVnNhZtj9RLlJGFQYp-1">
                    <mxGeometry relative="1" as="geometry"/>
                </mxCell>
                <mxCell id="PQXVnNhZtj9RLlJGFQYp-54" value="Fabric SQL Database" style="shape=image;verticalLabelPosition=bottom;labelBackgroundColor=default;verticalAlign=top;aspect=fixed;imageAspect=0;image=https://debruyn.dev/2024/all-microsoft-fabric-icons-for-diagramming/sql_database.png;fontSize=15;" vertex="1" parent="1">
                    <mxGeometry x="-24365" y="14640" width="60" height="60" as="geometry"/>
                </mxCell>
                <mxCell id="PQXVnNhZtj9RLlJGFQYp-56" style="edgeStyle=none;html=1;fontSize=15;" edge="1" parent="1" source="PQXVnNhZtj9RLlJGFQYp-1" target="PQXVnNhZtj9RLlJGFQYp-14">
                    <mxGeometry relative="1" as="geometry"/>
                </mxCell>
                <mxCell id="PQXVnNhZtj9RLlJGFQYp-58" value="Storage" style="text;html=1;align=center;verticalAlign=middle;resizable=0;points=[];autosize=1;strokeColor=none;fillColor=none;fontSize=20;" vertex="1" parent="1">
                    <mxGeometry x="-24305" y="15035" width="90" height="40" as="geometry"/>
                </mxCell>
                <mxCell id="PQXVnNhZtj9RLlJGFQYp-59" value="Notebook" style="shape=image;verticalLabelPosition=bottom;labelBackgroundColor=default;verticalAlign=top;aspect=fixed;imageAspect=0;image=https://debruyn.dev/2024/all-microsoft-fabric-icons-for-diagramming/notebook.png;fontSize=15;" vertex="1" parent="1">
                    <mxGeometry x="-24590" y="15037" width="53" height="53" as="geometry"/>
                </mxCell>
                <mxCell id="PQXVnNhZtj9RLlJGFQYp-60" value="Prisma Fabric Tenant" style="shape=image;verticalLabelPosition=bottom;labelBackgroundColor=default;verticalAlign=top;aspect=fixed;imageAspect=0;image=https://debruyn.dev/2023/all-microsoft-fabric-icons-for-diagramming-old-version/Fabric_final_x256.png;fontSize=20;" vertex="1" parent="1">
                    <mxGeometry x="-24072.23" y="14510" width="70" height="70" as="geometry"/>
                </mxCell>
                <mxCell id="PQXVnNhZtj9RLlJGFQYp-52" style="edgeStyle=none;html=1;fontSize=15;" edge="1" parent="1" source="PQXVnNhZtj9RLlJGFQYp-16" target="PQXVnNhZtj9RLlJGFQYp-49">
                    <mxGeometry relative="1" as="geometry"/>
                </mxCell>
            </root>
        </mxGraphModel>
    </diagram>
</mxfile>